<svg width="400" height="300" viewBox="0 0 211.67 158.75" xmlns="http://www.w3.org/2000/svg" xmlns:xlink="http://www.w3.org/1999/xlink"><defs><clipPath id="a"><path d="M256 45.268a210.73 210.73 0 0 0-210.73 210.73A210.73 210.73 0 0 0 256 466.728a210.73 210.73 0 0 0 210.73-210.73A210.73 210.73 0 0 0 256 45.268zm0 111.84a98.889 98.889 0 0 1 98.889 98.889A98.889 98.889 0 0 1 256 354.886a98.889 98.889 0 0 1-98.889-98.889A98.889 98.889 0 0 1 256 157.108z" fill="#f9f9f9"/></clipPath></defs><g transform="matrix(.12042 0 0 .12042 87.14 3.143)"><path d="M455.38 151.67c-315.14 251.77-157.57 125.89 0 0zm0 0-182.16.07c50.16 8.227 88.436 51.768 88.436 104.26a105.658 105.658 0 0 1-26.666 70.02l-90.34 154.7c3.758.188 7.54.285 11.344.284 124.26 0 225-100.74 225-225 0-37.655-9.265-73.14-25.617-104.33z" fill="#91b0e8"/><path d="M256 31c-80.893 0-151.8 42.696-191.46 106.77l87.802 138.28c.407 6.581-2.001-19.578-2.006-20.051 0-58.355 47.306-105.66 105.66-105.66 5.478.044 16.793 1.148 22.199 2.04l177.18-.705c-37.61-71.73-112.77-120.67-199.38-120.67zM64.52 137.82c-54.566 261.01-27.283 130.5 0 0z" fill="#396bd7"/><path d="M64.543 137.77C43.283 172.126 31 212.624 31 256c0 120.46 94.663 218.81 213.66 224.72L335 326.02a105.661 105.661 0 0 1-78.996 35.641c-50.591-.042-94.054-35.938-103.65-85.61z" fill="#6199f6"/><circle cx="256" cy="256" r="105.66" fill="#fff"/><circle cx="256" cy="256" r="87.188" fill="#4688f4"/><path transform="translate(-17.332 -17.332) scale(1.0677)" d="m76.52 145.28 82.559 129.44 31.167-34.482zm366.24 12.965-165.97.71 16.342 37.878 149.62-38.587zm-167.4 150.67-29.982 157.57 84.555-144.81z" clip-path="url(#a)" fill="#367100" opacity=".1"/></g><g class="fa-group"><path class="fa-secondary" d="M76.974 55.026c0 .097 1.59-.65 4.202-4.84-.807.758-3.504 2.95-4.202 4.84zm11.295-26.36c-.35 0-.361 3.722.24 5.649.675-1.205.771-5.648-.24-5.648zm9.657 17.112c4.468 1.903 5.154 1.084 5.154 1.084.494-.325-.3-1.433-5.154-1.084zm-9.621-5.78c-.927 2.433-2.083 5.214-3.42 7.55 2.204-.842 4.696-2.07 7.574-2.637-1.529-1.156-2.998-2.817-4.154-4.913zm11.054-21.11a1.927 1.927 0 0 1-1.926-1.926V3.475H69.496a2.883 2.883 0 0 0-2.89 2.876V62.24a2.883 2.883 0 0 0 2.875 2.89h40.475a2.883 2.883 0 0 0 2.89-2.876V18.889zm2.638 30.635c-2.036 0-5.094-.927-7.707-2.348-2.999.494-6.406 1.77-9.513 2.794-3.059 5.274-5.202 7.442-7.358 7.442-.662 0-1.914-.374-2.589-1.204-2.3-2.83 3.3-6.515 6.563-8.189.012 0 .012-.012.024-.012 1.457-2.553 3.516-7.008 4.913-10.332-1.023-3.962-1.577-7.068-.975-9.272.65-2.372 5.19-2.721 5.756.819.65 2.12-.205 5.503-.747 7.73 1.132 2.987 2.734 5.01 5.142 6.48 2.324-.302 7.189-.772 8.863.866 1.385 1.373 1.144 5.226-2.372 5.226z" fill="#fec7c3"/><path d="M88.265 26.594c-1.287-.058-2.585.622-2.91 1.808-.602 2.204-.048 5.31.975 9.273-1.397 3.323-3.456 7.779-4.913 10.331-.012 0-.012.012-.024.012-3.263 1.674-8.863 5.359-6.563 8.189.675.83 1.927 1.204 2.59 1.204 2.155 0 4.298-2.167 7.357-7.442 3.107-1.023 6.515-2.3 9.513-2.794 2.613 1.421 5.672 2.349 7.707 2.349 3.516 0 3.757-3.853 2.372-5.226-1.674-1.638-6.539-1.168-8.863-.867-2.408-1.47-4.01-3.492-5.142-6.479.542-2.228 1.397-5.611.747-7.73-.283-1.77-1.56-2.569-2.847-2.627zm.004 2.073c1.012 0 .915 4.444.24 5.648-.601-1.927-.59-5.648-.24-5.648zM88.305 40c1.156 2.095 2.625 3.757 4.155 4.913-2.878.566-5.371 1.794-7.575 2.637 1.337-2.336 2.493-5.118 3.42-7.55zm11.257 5.713c3.396-.018 3.95.866 3.519 1.15 0 0-.687.82-5.154-1.083a24.62 24.62 0 0 1 1.635-.067zm-18.386 4.474c-2.613 4.19-4.202 4.937-4.202 4.84.698-1.89 3.396-4.081 4.202-4.84z" fill="#f40f02"/><path d="M112.003 16.12 100.214 4.317a2.89 2.89 0 0 0-2.047-.843h-.734v13.487a1.927 1.927 0 0 0 1.926 1.927h13.487v-.735a2.878 2.878 0 0 0-.843-2.035z" fill="#fea5a2"/></g><g transform="translate(67.55 -220.1) scale(.48904)" fill="#4d4d4d" style="shape-inside:url(#rect26256);white-space:pre" aria-label="PDFium binaries"><path d="M-61.92 618.66v9.648h-6.856V599.87h11.348q3.262 0 5.762 1.211 2.52 1.192 3.887 3.418 1.387 2.207 1.387 5.02 0 4.16-2.989 6.66-2.969 2.48-8.164 2.48zm0-5.293h4.492q1.992 0 3.027-.996 1.055-.996 1.055-2.813 0-1.992-1.074-3.183-1.074-1.192-2.93-1.211h-4.57zM-42.74 628.31v-28.438h9.16q3.77 0 6.777 1.719 3.008 1.699 4.688 4.824 1.7 3.106 1.719 6.973v1.308q0 3.906-1.66 7.012-1.641 3.086-4.649 4.844-2.988 1.738-6.68 1.757zm6.856-23.145v17.871h2.382q2.95 0 4.532-2.09 1.581-2.11 1.581-6.25v-1.23q0-4.121-1.582-6.211t-4.609-2.09zM1.03 616.98h-11.056v11.328h-6.855V599.87H2.142v5.293h-12.168v6.543H1.029zM11.635 628.31H5.033v-21.133h6.602zm-6.992-26.582q0-1.406 1.015-2.305t2.637-.898q1.621 0 2.637.898 1.015.899 1.015 2.305t-1.015 2.305q-1.016.898-2.637.898t-2.637-.898q-1.015-.899-1.015-2.305zM28.275 626.03q-2.09 2.676-5.644 2.676-3.477 0-5.274-2.012-1.777-2.031-1.777-5.82v-13.691h6.582v13.73q0 2.715 2.637 2.715 2.265 0 3.222-1.622v-14.824h6.621v21.133H28.47zM44.467 607.18l.215 2.48q2.246-2.87 6.035-2.87 4.004 0 5.41 3.183 2.149-3.184 6.211-3.184 6.426 0 6.602 7.774v13.75h-6.602v-13.34q0-1.621-.547-2.363-.547-.743-1.992-.743-1.953 0-2.91 1.739l.02.273v14.434h-6.602v-13.3q0-1.661-.528-2.403-.527-.743-2.011-.743-1.895 0-2.89 1.739v14.707h-6.583V607.18zM102.28 617.92q0 5.195-2.148 7.988-2.149 2.793-6.055 2.793-3.223 0-5.195-2.558l-.274 2.168H82.71v-30h6.582v10.566q1.836-2.09 4.746-2.09 3.945 0 6.094 2.832 2.148 2.832 2.148 7.969zm-6.602-.41q0-3.047-.82-4.336-.8-1.309-2.48-1.309-2.227 0-3.086 1.7v8.398q.84 1.68 3.125 1.68 2.324 0 2.949-2.266.312-1.113.312-3.867zM112.12 628.31h-6.602v-21.133h6.602zm-6.992-26.582q0-1.406 1.015-2.305 1.016-.898 2.637-.898t2.637.898q1.015.899 1.015 2.305t-1.015 2.305q-1.016.898-2.637.898t-2.637-.898q-1.015-.899-1.015-2.305zM122.22 607.18l.215 2.48q2.187-2.87 6.035-2.87 3.3 0 4.922 1.972 1.64 1.973 1.7 5.938v13.613h-6.602v-13.34q0-1.602-.645-2.344-.645-.762-2.344-.762-1.933 0-2.87 1.523v14.922h-6.583V607.18zM150.64 628.31q-.352-.645-.625-1.895-1.816 2.286-5.078 2.286-2.988 0-5.078-1.797-2.09-1.817-2.09-4.551 0-3.438 2.54-5.195 2.538-1.758 7.382-1.758h2.031v-1.113q0-2.91-2.52-2.91-2.343 0-2.343 2.304h-6.582q0-3.066 2.598-4.98 2.617-1.915 6.66-1.915t6.386 1.973q2.344 1.973 2.403 5.41v9.356q.039 2.91.898 4.453v.332zm-4.121-4.297q1.23 0 2.031-.527.82-.528 1.172-1.192v-3.379h-1.914q-3.438 0-3.438 3.086 0 .899.606 1.465.605.547 1.543.547zM172.75 613.14l-2.168-.156q-3.106 0-3.984 1.953v13.379h-6.582v-21.133h6.172l.214 2.715q1.66-3.106 4.63-3.106 1.054 0 1.835.235zM182.06 628.31h-6.602v-21.133h6.602zm-6.992-26.582q0-1.406 1.015-2.305 1.016-.898 2.637-.898t2.637.898q1.015.899 1.015 2.305t-1.015 2.305q-1.016.898-2.637.898t-2.637-.898q-1.015-.899-1.015-2.305zM196.34 628.7q-4.863 0-7.871-2.89-3.008-2.91-3.008-7.56v-.546q0-3.242 1.191-5.723 1.211-2.48 3.516-3.828 2.305-1.367 5.469-1.367 4.453 0 7.031 2.773 2.578 2.754 2.578 7.696v2.558H192.16q.352 1.778 1.543 2.793 1.192 1.016 3.086 1.016 3.125 0 4.883-2.188l3.008 3.555q-1.23 1.7-3.496 2.715-2.247.996-4.844.996zm-.742-16.836q-2.89 0-3.438 3.828h6.64v-.508q.04-1.582-.8-2.441-.84-.879-2.402-.879zM218.96 622.38q0-.84-.879-1.348-.879-.508-3.34-1.054-2.46-.547-4.062-1.426-1.602-.899-2.442-2.168-.84-1.27-.84-2.91 0-2.91 2.403-4.786 2.402-1.894 6.29-1.894 4.179 0 6.718 1.894t2.539 4.98h-6.602q0-2.538-2.675-2.538-1.036 0-1.739.586-.703.566-.703 1.426 0 .878.86 1.425.859.547 2.734.899 1.894.351 3.32.84 4.766 1.64 4.766 5.879 0 2.89-2.578 4.707-2.559 1.816-6.64 1.816-2.716 0-4.845-.977t-3.32-2.656q-1.191-1.68-1.191-3.535h6.152q.04 1.465.977 2.148.937.664 2.402.664 1.348 0 2.012-.546.683-.547.683-1.426z"/></g><g transform="translate(160.712 -25.629) scale(.45513)"><use transform="translate(204.35 3.265)" width="100%" height="100%" xlink:href="#b"/><path d="m42.458 288.48 18.111-2.496v17.5H42.458zm0 32.02 18.111 2.496v-17.283H42.458zm20.104 2.762 24.089 3.324v-20.873H62.562zm0-37.544v17.766h24.089v-21.09z" fill="#fff"/></g><g transform="translate(127.328 -24.143) scale(.45513)"><g id="c"><circle id="b" cx="-139.79" cy="301.22" r="40.057" fill="#b3b3b3" stroke-width=".265"/></g><path d="M-165.2 313.54h4.242v-18.058h-4.242zm2.112-20.426c1.33 0 2.368-1.022 2.368-2.3 0-1.294-1.039-2.317-2.368-2.317-1.311 0-2.35 1.023-2.35 2.317 0 1.278 1.039 2.3 2.35 2.3zm16.253-4.566c-7.171 0-11.67 4.89-11.67 12.71s4.498 12.691 11.67 12.691c7.155 0 11.653-4.872 11.653-12.692s-4.497-12.709-11.653-12.709zm0 3.748c4.379 0 7.172 3.476 7.172 8.961 0 5.468-2.793 8.944-7.172 8.944-4.395 0-7.171-3.475-7.171-8.944 0-5.485 2.776-8.96 7.171-8.96zm13.442 14.327c.188 4.532 3.902 7.326 9.557 7.326 5.946 0 9.694-2.93 9.694-7.598 0-3.663-2.112-5.724-7.104-6.866l-2.828-.647c-3.015-.716-4.259-1.67-4.259-3.305 0-2.044 1.874-3.407 4.65-3.407 2.812 0 4.737 1.38 4.941 3.68h4.191c-.102-4.328-3.68-7.258-9.097-7.258-5.35 0-9.148 2.947-9.148 7.309 0 3.509 2.146 5.69 6.678 6.729l3.185.75c3.1.732 4.361 1.754 4.361 3.526 0 2.044-2.06 3.51-5.025 3.51-2.998 0-5.264-1.483-5.536-3.749h-4.26z" fill="#fff"/></g><g transform="translate(123.464 -25.842) scale(.45513)"><use transform="translate(101.05 3.733)" width="100%" height="100%" xlink:href="#b"/><g fill="#fff" stroke-width=".204"><path class="st1" d="M-34.27 291.77h.04v1.415h1.618v-5.825c0-.421-.082-.804-.243-1.145a2.489 2.489 0 0 0-.687-.876 3.193 3.193 0 0 0-1.075-.559 4.663 4.663 0 0 0-1.404-.196c-.48 0-.922.066-1.33.196a3.36 3.36 0 0 0-1.06.548c-.3.234-.537.51-.712.828a2.255 2.255 0 0 0-.277 1.04h1.587a1.41 1.41 0 0 1 .578-.881c.152-.106.327-.188.525-.246.198-.056.413-.085.643-.085.568 0 1.007.128 1.318.382.31.254.465.629.465 1.118v.656l-2.29.132c-1.054.068-1.858.313-2.413.732-.555.42-.833 1.002-.833 1.747 0 .38.07.726.212 1.037.14.31.338.574.59.794.252.219.553.388.907.508.35.12.737.18 1.16.18.288 0 .567-.034.84-.104a2.93 2.93 0 0 0 1.384-.774c.185-.185.337-.393.457-.622zm-.646-.394c-.198.17-.435.305-.705.4-.27.095-.563.143-.875.143-.49 0-.882-.106-1.173-.324a1.026 1.026 0 0 1-.439-.871c0-.375.148-.668.443-.88.295-.21.734-.333 1.318-.37l2.063-.142v.664a1.792 1.792 0 0 1-.633 1.38zM-23.072 310.34l-2.805-.7c-3.416-.863-4.818-1.979-4.818-3.865 0-2.392 2.229-4.046 5.447-4.046 3.238 0 5.412 1.637 5.664 4.298h3.65c-.144-4.422-3.883-7.497-9.24-7.497-5.484 0-9.331 3.057-9.331 7.462 0 3.577 2.174 5.753 6.957 6.94l3.327.826c3.414.862 4.89 2.122 4.89 4.207 0 2.408-2.429 4.171-5.808 4.171-3.523 0-6.095-1.763-6.383-4.424h-3.686c.268 4.657 4.117 7.623 9.78 7.623 6.077 0 9.887-3.003 9.89-7.82 0-3.776-2.194-5.88-7.534-7.175zM-41.623 293.18v-5.786a3.25 3.25 0 0 0-.196-1.153 2.453 2.453 0 0 0-.56-.884 2.518 2.518 0 0 0-.875-.563 3.09 3.09 0 0 0-1.137-.2c-.303 0-.59.037-.864.113a2.748 2.748 0 0 0-1.365.848c-.176.202-.32.431-.428.688h-.041c-.171-.532-.462-.94-.872-1.223-.407-.284-.91-.425-1.504-.425-.276 0-.54.034-.79.104-.249.07-.48.171-.687.305a2.422 2.422 0 0 0-.94 1.122h-.03v-1.438h-1.62v8.49h1.602v-5.208c0-.276.14-.532.225-.765.087-.235.211-.436.37-.61.16-.17.35-.304.571-.401.223-.097.464-.146.724-.146.25 0 .476.04.678.115.2.076.372.182.512.324.142.142.249.31.324.509.076.198.115.419.115.664v5.52h1.665v-5.27c0-.272.045-.522.134-.751.088-.23.21-.427.367-.59.155-.165.344-.294.56-.385.217-.09.455-.138.715-.138.532 0 .942.154 1.227.459.287.304.431.737.431 1.294v5.381h1.689zM-49.857 298.53c-7.425 0-12.081 5.177-12.081 13.411s4.657 13.394 12.081 13.394c7.425 0 12.064-5.161 12.064-13.394 0-8.234-4.64-13.411-12.064-13.411zm0 23.495c-5.088 0-8.27-3.902-8.27-10.086 0-6.202 3.182-10.103 8.27-10.103 5.07 0 8.271 3.902 8.27 10.103 0 6.184-3.2 10.086-8.27 10.086zM-28.462 286.8c.198-.252.437-.448.716-.586.278-.138.59-.208.934-.208.293 0 .553.039.786.12.231.08.433.19.606.332.17.142.308.309.413.501.105.192.179.402.22.625h1.616a3.217 3.217 0 0 0-.328-1.157 3.114 3.114 0 0 0-.743-.957 3.54 3.54 0 0 0-1.122-.652 4.197 4.197 0 0 0-1.466-.242c-.6 0-1.145.102-1.634.308-.49.206-.906.499-1.254.88-.347.38-.615.838-.806 1.372a5.235 5.235 0 0 0-.281 1.791c0 .674.095 1.278.285 1.815.19.538.46.994.81 1.369.35.374.77.664 1.26.864.49.2 1.036.3 1.642.3.51 0 .98-.071 1.407-.211a3.43 3.43 0 0 0 1.114-.598 3.12 3.12 0 0 0 .769-.934 3.22 3.22 0 0 0 .367-1.21h-1.62c-.104.5-.329.88-.678 1.14-.35.26-.8.39-1.353.39-.338 0-.649-.067-.93-.2a2.012 2.012 0 0 1-.724-.574 2.657 2.657 0 0 1-.466-.918 4.206 4.206 0 0 1-.165-1.23c0-.443.054-.845.165-1.208.109-.361.262-.67.46-.922z"/></g></g><g transform="translate(-51.78 -24.8) scale(.45513)"><use transform="translate(300.97 1.444)" width="100%" height="100%" xlink:href="#c"/><g fill="#fff"><g transform="matrix(.2616 0 0 .2616 216.865 208.322)"><path d="M-299.04 399.58c-6.886 0-13.966 5.518-13.966 15.176 0 8.83 6.225 15.066 13.966 15.066 6.39 0 9.237-4.289 9.237-4.289v1.87c0 .883.836 1.87 1.87 1.87h4.618V400.24h-6.488v3.684s-2.871-4.344-9.237-4.344zm1.156 5.936c5.668 0 8.641 4.985 8.641 9.237 0 4.736-3.53 9.234-8.63 9.234-4.262 0-8.532-3.452-8.532-9.296 0-5.275 3.675-9.175 8.52-9.175zM-274.29 429.27c-.997 0-1.87-.715-1.87-1.87v-27.162h6.489v3.593c1.47-2.21 4.342-4.261 8.75-4.261 7.207 0 11.044 5.744 11.044 11.116v18.585h-4.509c-1.182 0-1.98-.99-1.98-1.98v-15.176c0-2.977-1.823-6.593-6.042-6.593-4.553 0-7.263 4.302-7.263 8.353v15.396zM-230.97 399.58c-6.886 0-13.966 5.518-13.966 15.176 0 8.83 6.225 15.066 13.966 15.066 6.39 0 9.237-4.289 9.237-4.289v1.87c0 .883.836 1.87 1.87 1.87h4.618v-43.548h-6.488v18.2s-2.871-4.344-9.237-4.344zm1.156 5.936c5.668 0 8.641 4.985 8.641 9.237 0 4.736-3.53 9.234-8.63 9.234-4.262 0-8.532-3.452-8.532-9.296 0-5.275 3.675-9.175 8.52-9.175zM-206.22 429.27c-.997 0-1.87-.715-1.87-1.87v-27.162h6.489v4.84c1.116-2.712 3.526-5.17 7.807-5.17 1.194 0 2.31.22 2.31.22v6.709s-1.394-.55-3.08-.55c-4.552 0-7.037 4.302-7.037 8.353v14.63zM-152.12 429.27c-.997 0-1.87-.715-1.87-1.87v-27.162h6.489v29.032zM-128.48 399.58c-6.886 0-13.966 5.518-13.966 15.176 0 8.83 6.225 15.066 13.966 15.066 6.39 0 9.237-4.289 9.237-4.289v1.87c0 .883.836 1.87 1.87 1.87h4.619v-43.548h-6.489v18.2s-2.871-4.344-9.237-4.344zm1.156 5.936c5.668 0 8.641 4.985 8.641 9.237 0 4.736-3.53 9.234-8.63 9.234-4.262 0-8.532-3.452-8.532-9.296 0-5.275 3.675-9.175 8.52-9.175z"/><circle cx="-150.79" cy="389.69" r="4.29"/><path d="M-174.38 399.57c-7.211 0-15.134 5.383-15.134 15.134 0 8.886 6.748 15.118 15.118 15.118 10.315 0 15.352-8.292 15.352-15.062 0-8.307-6.486-15.19-15.336-15.19zm.024 6.059c4.986 0 8.706 4.02 8.706 9.093 0 5.162-3.949 9.145-8.692 9.145-4.402 0-8.682-3.583-8.682-9.058 0-5.567 4.07-9.18 8.667-9.18z"/></g><path d="m173.96 283.885 4.343-7.523a.882.882 0 0 0-.32-1.203.87.87 0 0 0-1.196.32l-4.4 7.62c-3.357-1.534-7.135-2.388-11.199-2.388-4.063 0-7.842.854-11.198 2.387l-4.4-7.62a.877.877 0 0 0-1.203-.319.877.877 0 0 0-.319 1.203l4.343 7.523c-7.489 4.058-12.561 11.637-13.399 20.51h52.353c-.837-8.873-5.91-16.453-13.404-20.51zm-24.791 13.16a2.195 2.195 0 0 1 0-4.39 2.195 2.195 0 0 1 0 4.39zm24.033 0a2.195 2.195 0 0 1 0-4.39 2.195 2.195 0 0 1 0 4.39z"/></g></g><g transform="translate(16.79 -22.5) scale(.45513)"><use transform="translate(428 -3.609)" width="100%" height="100%" xlink:href="#c"/><path d="M287.86 283.67c.105.053.19.179.315.179.116 0 .295-.042.305-.158.021-.147-.2-.242-.336-.305-.179-.073-.41-.105-.578-.01-.042.02-.084.073-.063.115.031.136.241.115.357.178zm-2.302.179c.127 0 .21-.126.316-.179.115-.063.325-.042.368-.168.02-.042-.022-.095-.063-.116-.169-.094-.4-.063-.578.011-.137.063-.358.158-.337.305.011.105.19.158.294.147zm23.237 29.3c-.378-.42-.557-1.218-.756-2.07-.19-.851-.41-1.765-1.104-2.354a2.84 2.84 0 0 0-.42-.305 2.33 2.33 0 0 0-.431-.21c.967-2.869.588-5.727-.389-8.313-1.198-3.163-3.29-5.927-4.887-7.819-1.797-2.26-3.541-4.403-3.51-7.567.053-4.824.536-13.788-7.966-13.799-10.762-.02-8.072 10.867-8.187 14.21-.179 2.459-.673 4.392-2.365 6.799-1.986 2.365-4.781 6.18-6.106 10.163-.63 1.881-.925 3.794-.651 5.602-.683.61-1.198 1.545-1.745 2.123-.441.451-1.082.62-1.786.872-.705.252-1.472.63-1.945 1.524-.22.41-.294.851-.294 1.303 0 .41.063.83.126 1.24.126.851.263 1.65.084 2.186-.546 1.513-.62 2.564-.231 3.332.4.767 1.198 1.103 2.112 1.292 1.819.379 4.288.284 6.233 1.314 2.08 1.093 4.193 1.482 5.874 1.093 1.22-.273 2.218-1.009 2.722-2.123 1.314-.011 2.764-.568 5.076-.694 1.566-.126 3.532.557 5.791.431.063.242.147.484.263.704v.011c.872 1.756 2.501 2.554 4.235 2.418 1.745-.137 3.584-1.156 5.076-2.933 1.43-1.723 3.784-2.438 5.35-3.384.777-.472 1.408-1.061 1.46-1.923.042-.861-.462-1.818-1.629-3.121zm-20.63-33.262c1.03-2.333 3.595-2.291 4.625-.042.683 1.492.378 3.247-.452 4.245-.168-.084-.62-.273-1.325-.514.116-.127.326-.284.41-.484.505-1.24-.02-2.838-.956-2.869-.767-.053-1.46 1.135-1.24 2.417-.431-.21-.988-.368-1.366-.462a4.186 4.186 0 0 1 .304-2.291zm-4.277-1.209c1.062 0 2.186 1.492 2.007 3.52a3.782 3.782 0 0 0-1.072.484c.126-.935-.347-2.112-1.009-2.06-.882.074-1.03 2.228-.189 2.953.105.085.2-.02-.62.579-1.64-1.535-1.103-5.476.883-5.476zm-1.43 6.38c.652-.484 1.43-1.052 1.482-1.104.494-.463 1.42-1.493 2.933-1.493.746 0 1.64.242 2.722.936.662.43 1.187.462 2.375.977.883.368 1.44 1.02 1.103 1.913-.273.746-1.156 1.513-2.385 1.902-1.167.378-2.081 1.682-4.015 1.566a2.93 2.93 0 0 1-1.009-.22c-.84-.369-1.282-1.094-2.102-1.577-.904-.505-1.387-1.093-1.545-1.608-.147-.515 0-.946.442-1.293zm.348 35.101c-.284 3.69-4.614 3.616-7.914 1.892-3.143-1.66-7.21-.683-8.04-2.302-.252-.493-.252-1.334.273-2.774v-.021c.252-.799.063-1.682-.063-2.512-.126-.82-.189-1.576.095-2.102.368-.704.893-.956 1.555-1.187 1.083-.39 1.24-.358 2.06-1.04.578-.6.998-1.357 1.503-1.893.536-.578 1.05-.85 1.86-.725.851.126 1.587.715 2.302 1.682l2.06 3.741c.998 2.092 4.53 5.087 4.308 7.241zm-.148-2.722c-.43-.693-1.009-1.429-1.513-2.06.746 0 1.492-.23 1.755-.935.242-.651 0-1.566-.778-2.617-1.418-1.912-4.025-3.415-4.025-3.415-1.419-.883-2.217-1.966-2.585-3.143-.368-1.177-.315-2.448-.032-3.7.547-2.406 1.955-4.75 2.86-6.22.24-.18.083.336-.915 2.185-.894 1.692-2.565 5.602-.273 8.66.063-2.175.578-4.393 1.45-6.463 1.261-2.88 3.92-7.872 4.13-11.844.116.084.483.336.652.43.483.284.85.705 1.324 1.083 1.303 1.05 2.995.967 4.456.126.651-.368 1.177-.788 1.67-.946 1.041-.326 1.872-.904 2.344-1.576.81 3.195 2.701 7.808 3.91 10.058.641 1.198 1.923 3.73 2.48 6.789.347-.011.736.042 1.146.147 1.45-3.752-1.23-7.798-2.449-8.922-.494-.484-.515-.694-.273-.684 1.324 1.178 3.069 3.542 3.7 6.201.293 1.22.346 2.49.041 3.752 1.724.715 3.773 1.881 3.227 3.657-.232-.01-.337 0-.442 0 .336-1.061-.41-1.85-2.396-2.743-2.06-.904-3.783-.904-4.025 1.314-1.272.441-1.923 1.545-2.25 2.87-.293 1.176-.377 2.595-.462 4.192-.052.81-.378 1.892-.714 3.048-3.374 2.407-8.061 3.458-12.012.757zm27.052-1.208c-.094 1.765-4.33 2.091-6.642 4.887-1.387 1.65-3.09 2.564-4.582 2.68-1.492.115-2.785-.505-3.542-2.029-.493-1.166-.252-2.427.116-3.815.389-1.492.967-3.026 1.04-4.267.085-1.597.18-2.995.442-4.067.273-1.082.694-1.807 1.44-2.217.031-.021.073-.032.105-.053.084 1.387.767 2.796 1.976 3.1 1.324.347 3.226-.788 4.035-1.713.946-.031 1.65-.094 2.375.536 1.04.894.747 3.185 1.798 4.372 1.114 1.22 1.47 2.05 1.44 2.586zm-26.84-29.89c.21.2.493.474.84.747.694.546 1.66 1.114 2.87 1.114 1.218 0 2.364-.62 3.341-1.135.515-.273 1.146-.736 1.556-1.093.41-.357.62-.662.325-.694-.294-.031-.273.274-.63.536-.463.337-1.02.778-1.46 1.03-.779.442-2.05 1.072-3.143 1.072s-1.966-.504-2.617-1.02c-.326-.262-.6-.525-.81-.724-.157-.147-.2-.484-.451-.515-.147-.011-.19.389.178.683z" fill="#fff"/></g><g fill="#4d4d4d" stroke-width=".434" aria-label="weekly builds since 2017"><path d="m28.647 148.93 1.39-6.537h1.484l-2.247 9.173H28.08l-1.788-6.562-1.747 6.562h-1.203l-2.23-9.173h1.475l1.424 6.375 1.704-6.375h1.187zM36.37 151.74q-1.713 0-2.629-1.018-.915-1.026-.932-3v-1.111q0-2.052.89-3.213.898-1.17 2.5-1.17 1.611 0 2.408 1.026.797 1.025.814 3.196v.983H34.3v.212q0 1.475.55 2.145.56.67 1.603.67.661 0 1.161-.247.509-.254.95-.796l.78.949q-.975 1.373-2.976 1.373zm-.17-8.223q-.933 0-1.382.644-.45.636-.509 1.983h3.611v-.203q-.059-1.305-.474-1.865-.407-.56-1.246-.56zM44.498 151.74q-1.712 0-2.628-1.018-.915-1.026-.932-3v-1.111q0-2.052.89-3.213.898-1.17 2.5-1.17 1.611 0 2.408 1.026.797 1.025.814 3.196v.983h-5.12v.212q0 1.475.55 2.145.56.67 1.603.67.661 0 1.161-.247.509-.254.95-.796l.78.949q-.975 1.373-2.976 1.373zm-.17-8.223q-.932 0-1.381.644-.45.636-.509 1.983h3.611v-.203q-.059-1.305-.474-1.865-.407-.56-1.246-.56zM51.653 147.38l-.797.915v3.28h-1.5v-13.02h1.5v7.79l2.857-3.942h1.797l-2.916 3.831 3.297 5.34h-1.746zM58.79 151.57h-1.5v-13.022h1.5zM63.656 149.08l1.67-6.68h1.594l-3 10.468q-.34 1.179-.959 1.789-.618.619-1.407.619-.305 0-.78-.136v-1.271l.331.033q.653 0 1.017-.313.373-.305.602-1.068l.297-1.026-2.696-9.096h1.636zM79 147.43q0 2.144-.771 3.229t-2.238 1.085q-1.458 0-2.187-1.255l-.077 1.085h-1.364v-13.02h1.491v4.857q.738-1.179 2.12-1.179 1.509 0 2.263 1.068t.763 3.222zm-1.492-.857q0-1.628-.458-2.314-.449-.695-1.466-.695-1.161 0-1.73 1.254v4.366q.56 1.238 1.747 1.238 1.017 0 1.458-.713.44-.712.45-2.212zM85.595 150.77q-.746.974-2.179.974-1.246 0-1.881-.856-.636-.865-.645-2.51v-5.976h1.492v5.866q0 2.145 1.289 2.145 1.364 0 1.882-1.22v-6.79h1.5v9.172h-1.424zM90.927 151.57h-1.5v-9.173h1.5zm.119-11.606q0 .382-.212.636t-.644.254q-.424 0-.636-.254-.212-.254-.212-.636t.212-.644q.212-.263.636-.263t.635.271q.22.263.22.636zM94.902 151.57h-1.5v-13.022h1.5zM96.945 146.57q0-2.12.788-3.23.797-1.111 2.28-1.111 1.315 0 2.052 1.068v-4.747h1.5v13.021h-1.373l-.076-.983q-.738 1.153-2.11 1.153-1.425 0-2.239-1.102-.805-1.111-.822-3.128zm1.5.855q0 1.543.458 2.272.458.72 1.492.72 1.12 0 1.67-1.127v-4.628q-.576-1.102-1.661-1.102-1.035 0-1.492.729-.458.72-.467 2.22zM110.33 149.22q0-.484-.364-.832-.365-.347-1.408-.813-1.212-.5-1.712-.857-.492-.356-.737-.805-.246-.458-.246-1.085 0-1.119.814-1.856.822-.746 2.093-.746 1.34 0 2.153.78.814.78.814 2h-1.492q0-.619-.415-1.05-.415-.442-1.06-.442-.66 0-1.042.348-.373.339-.373.915 0 .458.27.738.28.28 1.332.737 1.67.653 2.272 1.28.601.62.601 1.577 0 1.195-.822 1.916-.822.712-2.204.712-1.432 0-2.323-.822-.89-.823-.89-2.086h1.51q.025.763.466 1.196.44.432 1.237.432.746 0 1.136-.33.39-.34.39-.908zM122.215 149.22q0-.484-.364-.832-.365-.347-1.408-.813-1.212-.5-1.712-.857-.492-.356-.737-.805-.246-.458-.246-1.085 0-1.119.813-1.856.823-.746 2.094-.746 1.34 0 2.153.78.814.78.814 2h-1.492q0-.619-.415-1.05-.415-.442-1.06-.442-.66 0-1.042.348-.373.339-.373.915 0 .458.27.738.28.28 1.332.737 1.67.653 2.272 1.28.601.62.601 1.577 0 1.195-.822 1.916-.822.712-2.204.712-1.432 0-2.323-.822-.89-.823-.89-2.086h1.51q.025.763.466 1.196.44.432 1.237.432.746 0 1.136-.33.39-.34.39-.908zM127.284 151.57h-1.5v-9.173h1.5zm.119-11.606q0 .382-.212.636t-.644.254q-.424 0-.636-.254t-.212-.636.212-.644q.212-.263.636-.263.423 0 .635.271.22.263.22.636zM131.057 142.4l.042.991q.874-1.161 2.23-1.161 2.433 0 2.467 3.246v6.095h-1.492v-6.027q0-1.076-.365-1.526-.356-.457-1.076-.457-.56 0-1.01.373-.44.373-.711.974v6.663h-1.5V142.4zM141.23 150.46q.745 0 1.194-.459.45-.466.492-1.322h1.416q-.051 1.322-.941 2.196-.882.864-2.162.864-1.704 0-2.602-1.068-.89-1.077-.89-3.196v-1.009q0-2.076.89-3.153.89-1.085 2.594-1.085 1.407 0 2.229.89.83.89.882 2.433h-1.416q-.051-1.017-.492-1.526-.432-.508-1.203-.508-1 0-1.484.66-.483.654-.5 2.154v1.17q0 1.619.475 2.289.483.67 1.517.67zM149.341 151.74q-1.712 0-2.628-1.018-.915-1.026-.932-3v-1.111q0-2.052.89-3.213.898-1.17 2.5-1.17 1.611 0 2.408 1.026.797 1.025.814 3.196v.983h-5.12v.212q0 1.475.55 2.145.56.67 1.603.67.661 0 1.161-.247.509-.254.95-.796l.78.949q-.975 1.373-2.976 1.373zm-.17-8.223q-.932 0-1.381.644-.45.636-.509 1.983h3.611v-.203q-.059-1.305-.474-1.865-.407-.56-1.246-.56zM164.937 151.57h-6.9v-1.128l3.518-4.663q.797-1.076 1.102-1.763.313-.695.313-1.466 0-.984-.457-1.594-.458-.61-1.204-.61-.941 0-1.458.652-.509.645-.509 1.865h-1.5q0-1.704.932-2.755.933-1.05 2.535-1.05 1.475 0 2.323.906.847.899.847 2.4 0 1.83-1.907 4.331l-2.746 3.594h5.111zM173.207 146.31q0 2.729-.797 4.085-.797 1.348-2.5 1.348-1.653 0-2.467-1.297-.814-1.297-.848-3.9v-2.119q0-2.704.797-4.035.805-1.33 2.5-1.33 1.67 0 2.467 1.262.806 1.264.848 3.824zm-1.5-2.146q0-1.958-.433-2.882-.432-.932-1.381-.932-.924 0-1.357.915-.432.907-.45 2.747v2.543q0 1.95.45 2.933.45.975 1.374.975.915 0 1.347-.924.433-.924.45-2.823zM179.647 151.57h-1.509v-10.453l-2.594 1.161v-1.424l3.866-1.687h.237zM190.557 140.11l-4.247 11.46h-1.568l4.238-11.054h-5.501v-1.288h7.078z"/></g></svg>