<svg width="400" height="300" viewBox="0 0 105.83 79.375" xmlns="http://www.w3.org/2000/svg" xmlns:xlink="http://www.w3.org/1999/xlink"><defs><filter id="d" x="-.049" y="-.049" width="1.116" height="1.116" color-interpolation-filters="sRGB"><feFlood flood-color="#000" flood-opacity=".643" result="flood"/><feComposite in="flood" in2="SourceGraphic" operator="in" result="composite1"/><feGaussianBlur in="composite1" result="blur" stdDeviation="1.4"/><feOffset dx="1.4" dy="1.4" result="offset"/><feComposite in="SourceGraphic" in2="offset" result="composite2"/></filter><filter id="e" x="-.135" y="-.135" width="1.27" height="1.27" color-interpolation-filters="sRGB"><feFlood flood-color="#FFF" result="flood"/><feComposite in="flood" in2="SourceGraphic" operator="in" result="composite1"/><feGaussianBlur in="composite1" result="blur" stdDeviation="14.4"/><feOffset result="offset"/><feComposite in="SourceGraphic" in2="offset" result="composite2"/></filter><radialGradient id="b" cx="-157.83" cy="290.91" r="40.057" gradientTransform="matrix(1.1277 1.4635 -1.3749 1.0593 416.47 196.71)" gradientUnits="userSpaceOnUse"><stop stop-color="#d9d9d9" offset="0"/><stop stop-color="#bebebe" offset=".37"/><stop stop-color="#b0b0b0" offset=".77"/><stop stop-color="#9c9c9c" offset="1"/></radialGradient><linearGradient id="c" x1="-116.31" x2="-161.48" y1="332.53" y2="273.91" gradientUnits="userSpaceOnUse"><stop stop-color="#d9d9d9" offset="0"/><stop stop-color="#bebebe" offset=".132"/><stop stop-color="#b0b0b0" offset=".832"/><stop stop-color="#949494" offset="1"/></linearGradient><clipPath id="f"><path d="M256 45.268a210.73 210.73 0 0 0-210.73 210.73A210.73 210.73 0 0 0 256 466.728a210.73 210.73 0 0 0 210.73-210.73A210.73 210.73 0 0 0 256 45.268zm0 111.84a98.889 98.889 0 0 1 98.889 98.889A98.889 98.889 0 0 1 256 354.886a98.889 98.889 0 0 1-98.889-98.889A98.889 98.889 0 0 1 256 157.108z" fill="#f9f9f9"/></clipPath></defs><g transform="matrix(.06122 0 0 .06122 43.413 .927)"><path d="M455.38 151.67c-315.14 251.77-157.57 125.89 0 0zm0 0-182.16.07c50.16 8.227 88.436 51.768 88.436 104.26a105.66 105.66 0 0 1-26.665 70.02l-90.34 154.7c3.758.187 7.54.284 11.344.284 124.26 0 225-100.74 225-225 0-37.655-9.265-73.14-25.617-104.33z" fill="#91b0e8"/><path d="M256 31c-80.893 0-151.8 42.696-191.46 106.78l87.802 138.28c.407 6.581-2.001-19.578-2.006-20.051 0-58.355 47.306-105.66 105.66-105.66 5.479.044 16.793 1.148 22.199 2.04l177.18-.705c-37.61-71.73-112.77-120.67-199.38-120.67zM64.52 137.82c-54.566 261.01-27.283 130.5 0 0z" fill="#396bd7" stroke-width="1.191"/><path d="M64.543 137.78C43.283 172.135 31 212.634 31 256c0 120.46 94.663 218.81 213.66 224.72L335 326.02a105.66 105.66 0 0 1-78.996 35.641c-50.591-.042-94.054-35.938-103.66-85.61z" fill="#6199f6" stroke-width="1.191"/><circle cx="256" cy="256" r="105.66" fill="#fff"/><circle cx="256" cy="256" r="87.188" fill="#4688f4"/><path transform="translate(-17.332 -17.332) scale(1.0677)" d="m76.52 145.28 82.558 129.44 31.168-34.482zm366.24 12.965-165.97.71 16.342 37.877zm-167.4 150.67-29.982 157.57 84.555-144.81z" clip-path="url(#f)" fill="#367100" opacity=".1"/></g><g class="fa-group"><path class="fa-secondary" d="M38.245 27.304c0 .049.808-.33 2.136-2.461-.41.385-1.781 1.5-2.136 2.46zm5.742-13.401c-.177 0-.183 1.892.123 2.871.342-.612.391-2.871-.123-2.871zm4.91 8.7c2.271.966 2.62.55 2.62.55.251-.165-.153-.728-2.62-.55zm-4.891-2.94c-.472 1.237-1.06 2.651-1.74 3.84 1.121-.43 2.388-1.054 3.852-1.342-.778-.587-1.525-1.432-2.112-2.497zm5.62-10.731a.98.98 0 0 1-.98-.98V1.096H34.443a1.466 1.466 0 0 0-1.47 1.462V30.97a1.466 1.466 0 0 0 1.463 1.47h20.577a1.466 1.466 0 0 0 1.47-1.463V8.932zm1.34 15.574c-1.034 0-2.59-.471-3.918-1.194-1.524.251-3.257.9-4.836 1.42-1.555 2.682-2.645 3.784-3.74 3.784-.337 0-.974-.19-1.317-.612-1.17-1.439 1.678-3.312 3.337-4.163.006 0 .006-.006.012-.006.74-1.298 1.787-3.563 2.498-5.253-.52-2.014-.802-3.594-.496-4.714.33-1.206 2.638-1.383 2.926.416.33 1.078-.104 2.798-.38 3.93.576 1.519 1.39 2.547 2.614 3.294 1.182-.153 3.655-.391 4.506.441.704.698.582 2.657-1.206 2.657z" fill="#fec7c3"/><path transform="matrix(.06122 0 0 .06122 31.869 -20.974)" d="M197.91 552.49c-10.687-.487-21.462 5.164-24.162 15.014-5 18.3-.4 44.1 8.1 77-11.6 27.6-28.7 64.599-40.8 85.799-.1 0-.1.1-.2.1-27.1 13.9-73.6 44.5-54.5 68 5.6 6.9 16 10 21.5 10 17.9 0 35.7-18 61.1-61.8 25.8-8.5 54.1-19.1 79-23.2 21.7 11.8 47.1 19.5 64 19.5 29.2 0 31.2-31.999 19.7-43.399-13.9-13.6-54.3-9.701-73.6-7.201-20-12.2-33.3-28.999-42.7-53.799 4.5-18.5 11.6-46.601 6.2-64.201-2.35-14.7-12.95-21.325-23.638-21.813zm.037 17.213c8.4 0 7.6 36.9 2 46.9-5-16-4.9-46.9-2-46.9zm.301 94.1c9.6 17.4 21.8 31.2 34.5 40.8-23.9 4.7-44.6 14.901-62.9 21.901 11.1-19.4 20.7-42.501 28.4-62.701zm93.479 47.443c28.205-.145 32.808 7.194 29.22 9.557 0 0-5.699 6.8-42.799-9 5.038-.363 9.55-.536 13.579-.557zm-152.68 37.156c-21.7 34.8-34.9 41.002-34.9 40.202 5.8-15.7 28.2-33.902 34.9-40.202z" fill="#f40f02" filter="url(#e)"/><path d="m56.054 7.524-5.994-6a1.47 1.47 0 0 0-1.04-.428h-.374v6.856a.98.98 0 0 0 .98.98h6.856v-.374a1.463 1.463 0 0 0-.428-1.034z" fill="#fea5a2"/></g><path transform="matrix(.26459 0 0 .26459 0 0)" d="M204.16 132.77v28.189h5.543l.258-2.037c1.236 1.603 2.862 2.404 4.88 2.404 2.448 0 4.344-.873 5.69-2.623 1.346-1.75 2.02-4.253 2.02-7.508v-.31c0-3.218-.674-5.714-2.02-7.488-1.346-1.775-3.255-2.663-5.726-2.663-1.824 0-3.31.656-4.46 1.965v-9.93h-6.185zm-69.924.201c-1.016 0-1.842.283-2.478.846-.637.563-.954 1.283-.954 2.164 0 .88.317 1.603.954 2.166.636.563 1.462.846 2.478.846s1.84-.283 2.477-.846c.636-.563.955-1.285.955-2.166s-.32-1.601-.955-2.164c-.637-.563-1.461-.846-2.477-.846zm94.426 0c-1.016 0-1.842.283-2.479.846-.636.563-.953 1.283-.953 2.164 0 .88.317 1.603.954 2.166.636.563 1.462.846 2.478.846s1.842-.283 2.478-.846c.637-.563.954-1.285.954-2.166s-.317-1.601-.954-2.164c-.636-.563-1.463-.846-2.478-.846zm65.723 0c-1.016 0-1.842.283-2.478.846s-.956 1.283-.956 2.164c0 .88.32 1.603.955 2.166.637.563 1.463.846 2.479.846s1.84-.283 2.477-.846c.636-.563.955-1.285.955-2.166s-.32-1.601-.955-2.164c-.637-.563-1.461-.846-2.477-.846zm-232.57 1.268v26.72h6.443v-9.066h4.112c3.254 0 5.81-.776 7.67-2.33 1.872-1.566 2.808-3.651 2.808-6.258 0-1.761-.434-3.334-1.303-4.716-.856-1.395-2.074-2.467-3.652-3.213-1.566-.759-3.37-1.137-5.414-1.137H61.815zm24.465 0v26.72h8.791c2.313-.011 4.405-.56 6.277-1.65a11.336 11.336 0 0 0 4.367-4.552c1.04-1.946 1.561-4.141 1.561-6.588v-1.23c-.012-2.423-.55-4.606-1.615-6.552-1.052-1.957-2.52-3.468-4.405-4.533-1.884-1.076-4.007-1.615-6.369-1.615H86.28zm24.299 0v26.72h6.443v-10.644h10.387v-4.955h-10.387v-6.149h11.434v-4.972H110.58zm-42.32 4.972h4.293c1.162.013 2.081.393 2.754 1.14.673.745 1.01 1.743 1.01 2.991 0 1.138-.332 2.019-.992 2.643-.649.624-1.596.935-2.844.935h-4.221v-7.709zm24.463 0h2.166c1.897 0 3.341.656 4.332 1.965.991 1.31 1.486 3.254 1.486 5.836v1.156c0 2.594-.495 4.552-1.486 5.873-.991 1.31-2.41 1.963-4.258 1.963h-2.24v-16.793zm81.379 1.524c-2.374 0-4.265.9-5.672 2.699l-.201-2.332h-5.8v19.857h6.185v-13.818c.624-1.089 1.53-1.635 2.716-1.635.93 0 1.559.233 1.89.697s.495 1.218.495 2.258v12.498h6.205v-13.562l-.02-.256c.6-1.089 1.512-1.634 2.735-1.634.906 0 1.529.232 1.871.697s.516 1.205.516 2.22v12.536h6.203v-12.92c-.11-4.87-2.178-7.305-6.203-7.305-2.545 0-4.492.998-5.838 2.992-.88-1.994-2.574-2.992-5.082-2.992zm73.062 0c-2.41 0-4.301.9-5.672 2.699l-.201-2.332h-5.799v19.857h6.184v-14.021c.587-.954 1.488-1.432 2.699-1.432 1.064 0 1.797.24 2.201.717.404.465.606 1.198.606 2.201v12.535h6.203v-12.79c-.037-2.484-.568-4.345-1.596-5.58-1.015-1.237-2.557-1.854-4.625-1.854zm17.912 0c-2.533 0-4.618.6-6.258 1.799-1.627 1.199-2.441 2.758-2.441 4.68h6.185c0-1.445.733-2.167 2.202-2.167 1.578 0 2.369.914 2.369 2.737v1.044h-1.91c-3.035 0-5.347.552-6.938 1.653-1.59 1.101-2.385 2.727-2.385 4.88 0 1.714.654 3.14 1.963 4.278 1.31 1.126 2.9 1.688 4.772 1.688 2.043 0 3.633-.715 4.771-2.147.171.783.368 1.376.588 1.78h6.186v-.311c-.539-.967-.82-2.363-.844-4.186v-8.79c-.037-2.154-.79-3.849-2.258-5.085-1.468-1.236-3.47-1.853-6.002-1.853zm22.078 0c-1.86 0-3.31.972-4.35 2.918l-.2-2.551h-5.8v19.857h6.184v-12.57c.55-1.224 1.799-1.836 3.744-1.836l2.037.147.112-5.745c-.49-.146-1.066-.22-1.727-.22zm23.125 0c-1.982 0-3.695.428-5.139 1.285-1.444.844-2.544 2.044-3.302 3.598-.747 1.554-1.12 3.346-1.12 5.377v.513c0 2.912.942 5.28 2.827 7.104 1.884 1.81 4.348 2.715 7.394 2.715 1.627 0 3.146-.312 4.553-.936 1.42-.636 2.514-1.486 3.285-2.55l-2.826-3.34c-1.101 1.37-2.63 2.054-4.588 2.054-1.187 0-2.154-.317-2.9-.953-.747-.636-1.23-1.512-1.45-2.625h12.295v-2.404c0-3.096-.806-5.506-2.422-7.23-1.615-1.738-3.817-2.608-6.607-2.608zm19.217 0c-2.435 0-4.405.594-5.91 1.781-1.505 1.175-2.258 2.673-2.258 4.496 0 1.028.263 1.94.79 2.734.525.796 1.29 1.475 2.294 2.038 1.003.55 2.275.997 3.816 1.34 1.542.342 2.588.672 3.14.99s.825.741.825 1.267c0 .55-.214.997-.642 1.34-.416.343-1.047.514-1.891.514-.918 0-1.67-.21-2.258-.625-.587-.429-.893-1.1-.918-2.018h-5.779c0 1.162.373 2.27 1.12 3.322.745 1.053 1.785 1.883 3.118 2.494 1.334.612 2.852.918 4.553.918 2.557 0 4.635-.569 6.238-1.707 1.615-1.137 2.424-2.61 2.424-4.421 0-2.656-1.493-4.498-4.479-5.526-.893-.306-1.932-.569-3.119-.789-1.174-.22-2.032-.501-2.57-.844-.538-.342-.807-.789-.807-1.34 0-.538.22-.984.66-1.34.441-.366.985-.55 1.633-.55 1.677 0 2.516.796 2.516 2.387h6.203c0-1.934-.796-3.493-2.387-4.68-1.59-1.187-3.694-1.781-6.312-1.781zm-198.32.367v19.857h6.203v-19.857h-6.203zm9.91 0v12.865c0 2.374.557 4.196 1.67 5.469 1.126 1.26 2.777 1.89 4.955 1.89 2.227 0 3.996-.837 5.305-2.513l.183 2.146h5.8v-19.857h-6.221v13.93c-.6 1.016-1.61 1.524-3.03 1.524-1.652 0-2.476-.85-2.476-2.551v-12.902h-6.186zm84.516 0v19.857h6.203v-19.857h-6.203zm65.721 0v19.857h6.203v-19.857h-6.203zm-78.072 4.404c1.052 0 1.829.411 2.33 1.23.514.808.772 2.166.772 4.075 0 1.725-.1 2.937-.295 3.635-.392 1.42-1.314 2.129-2.77 2.129-1.431 0-2.411-.528-2.937-1.58v-7.891c.538-1.065 1.505-1.598 2.9-1.598zm96.994 0c.979 0 1.732.276 2.258.826.526.539.776 1.304.752 2.295v.477h-6.238c.342-2.398 1.417-3.598 3.228-3.598zm-44.908 6.627h1.799v3.174c-.22.416-.588.789-1.102 1.12-.501.33-1.139.495-1.91.495-.587 0-1.07-.17-1.449-.513-.38-.355-.568-.814-.568-1.377 0-1.934 1.077-2.899 3.23-2.899z" fill="#4d4d4d" stroke-width=".94" style="white-space:pre"/><path d="M27.669 70.565v5.82h.67V74.92l.357-.41 1.114 1.877h.78l-1.474-2.388 1.304-1.712h-.803l-1.277 1.762v-3.483zm3.547 0v5.82h.67v-5.82zm6.738 0v5.82h.61l.034-.484c.217.374.543.56.978.56.437 0 .77-.161 1-.484.23-.324.345-.805.345-1.444v-.405c-.002-.642-.116-1.122-.341-1.44-.225-.319-.562-.478-1.012-.478-.412 0-.727.175-.947.526v-2.17zm9.406 0v5.82h.67v-5.82zm3.872 0v2.122a1.052 1.052 0 0 0-.916-.477c-.442 0-.782.166-1.02.497-.235.33-.352.812-.352 1.443v.421c.005.601.127 1.067.367 1.398.243.329.576.493 1 .493.41 0 .724-.172.944-.515l.034.439h.614v-5.82zm-5.309.227c-.126 0-.22.04-.284.118s-.094.174-.094.288.03.208.094.284.158.114.284.114c.13 0 .225-.038.289-.114a.429.429 0 0 0 .094-.284.428.428 0 0 0-.098-.284c-.064-.081-.158-.122-.285-.122zm16.254 0c-.126 0-.22.04-.284.118s-.094.174-.094.288.03.208.094.284.158.114.284.114c.13 0 .225-.038.288-.114s.095-.17.095-.284a.428.428 0 0 0-.098-.284c-.064-.081-.158-.122-.285-.122zm15.541 0c-.477 0-.855.157-1.133.47-.278.314-.417.724-.417 1.232h.671c0-.364.076-.641.228-.833.154-.195.37-.292.651-.292a.64.64 0 0 1 .538.272c.137.182.205.42.205.713 0 .23-.047.448-.14.655-.091.205-.255.468-.493.789l-1.573 2.084v.504h3.085v-.572h-2.285l1.228-1.607c.569-.745.853-1.39.853-1.937 0-.447-.127-.804-.38-1.072-.252-.27-.598-.406-1.038-.406zm3.835 0c-.505 0-.878.199-1.118.596-.237.396-.356.997-.356 1.803v.948c.01.776.137 1.356.38 1.743.242.386.61.58 1.102.58.508 0 .88-.201 1.118-.603.237-.404.356-1.013.356-1.827v-.966c-.012-.763-.139-1.332-.379-1.709-.237-.376-.605-.565-1.103-.565zm4.256.05-1.728.754v.637l1.16-.52v4.673h.674v-5.544zm1.82.026v.577h2.459l-1.895 4.94h.7l1.9-5.122v-.395zm-6.076.5c.283 0 .49.14.618.418.13.275.194.704.194 1.288v1.14c-.006.566-.073.987-.201 1.262-.13.276-.33.414-.603.414-.275 0-.48-.146-.614-.436-.134-.293-.201-.73-.201-1.311v-1.137c.005-.549.072-.958.201-1.228.129-.273.33-.41.606-.41zm-59.766.842c-.477 0-.85.174-1.118.523-.265.346-.398.825-.398 1.436v.497c.006.588.145 1.035.418 1.341.272.303.664.455 1.174.455.596 0 1.04-.205 1.33-.614l-.348-.424c-.132.161-.273.28-.425.356-.149.073-.322.11-.52.11-.31 0-.549-.1-.715-.3-.165-.2-.246-.519-.246-.959v-.094h2.288v-.44c-.005-.647-.126-1.123-.363-1.429-.238-.306-.597-.458-1.077-.458zm3.635 0c-.478 0-.85.174-1.118.523-.265.346-.398.825-.398 1.436v.497c.005.588.144 1.035.416 1.341.273.303.665.455 1.176.455.596 0 1.04-.205 1.33-.614l-.35-.424c-.13.161-.272.28-.423.356-.15.073-.323.11-.52.11-.31 0-.55-.1-.716-.3-.164-.2-.246-.519-.246-.959v-.094h2.289v-.44c-.005-.647-.126-1.123-.364-1.429-.237-.306-.596-.458-1.076-.458zm28.809 0c-.38 0-.691.11-.936.333-.243.22-.364.497-.364.83 0 .187.036.349.11.485.073.134.183.254.33.36.148.107.404.234.765.383.31.139.52.26.629.364a.496.496 0 0 1 .163.371.51.51 0 0 1-.174.406c-.117.098-.286.148-.508.148-.238 0-.422-.065-.553-.194-.132-.128-.202-.306-.21-.534h-.674c0 .377.133.687.398.932s.612.368 1.039.368c.411 0 .74-.106.985-.319.245-.214.367-.5.367-.856 0-.285-.089-.52-.268-.705-.18-.187-.518-.378-1.016-.572-.314-.137-.512-.247-.595-.33a.454.454 0 0 1-.121-.33c0-.171.055-.308.166-.409.114-.104.27-.155.467-.155.192 0 .35.066.473.197a.653.653 0 0 1 .186.47h.667c0-.364-.121-.662-.364-.894s-.563-.35-.962-.35zm5.313 0c-.38 0-.691.11-.936.333-.243.22-.364.497-.364.83 0 .187.037.349.11.485.073.134.183.254.33.36.149.107.404.234.765.383.31.139.52.26.629.364a.496.496 0 0 1 .163.371c0 .17-.058.305-.175.406-.116.098-.285.148-.507.148-.237 0-.422-.065-.553-.194s-.201-.306-.209-.534h-.675c0 .377.133.687.398.932s.612.368 1.039.368c.412 0 .74-.106.985-.319.245-.214.368-.5.368-.856a.97.97 0 0 0-.27-.705c-.179-.187-.517-.378-1.015-.572-.313-.137-.512-.247-.595-.33a.453.453 0 0 1-.12-.33c0-.171.054-.308.165-.409.114-.104.27-.155.467-.155.192 0 .35.066.473.197a.653.653 0 0 1 .186.47h.667c0-.364-.121-.662-.364-.894-.242-.233-.563-.35-.962-.35zm5.665 0c-.404 0-.736.173-.997.52l-.019-.444h-.632v4.1h.67v-2.979c.081-.18.188-.324.319-.435a.687.687 0 0 1 .45-.167c.215 0 .376.068.482.204.109.134.163.362.163.682v2.695h.667V73.66c-.01-.967-.378-1.451-1.103-1.451zm3.528 0c-.508 0-.894.162-1.16.485-.265.321-.397.79-.397 1.41v.45c0 .632.132 1.108.398 1.43.268.318.655.477 1.163.477.381 0 .704-.129.966-.387.266-.26.406-.587.42-.981h-.632c-.012.255-.086.452-.22.591a.715.715 0 0 1-.534.205c-.308 0-.534-.1-.678-.3-.142-.2-.212-.54-.212-1.023v-.523c.005-.447.08-.768.223-.962.144-.197.365-.296.663-.296.23 0 .41.076.538.227.132.152.205.38.22.683h.633c-.015-.46-.146-.823-.394-1.088-.245-.266-.577-.398-.997-.398zm3.555 0c-.477 0-.85.174-1.118.523-.265.346-.398.825-.398 1.436v.497c.005.588.144 1.035.417 1.341.273.303.664.455 1.175.455.596 0 1.04-.205 1.33-.614l-.349-.424a1.31 1.31 0 0 1-.424.356c-.15.073-.322.11-.52.11-.31 0-.549-.1-.715-.3-.165-.2-.247-.519-.247-.959v-.094h2.289v-.44c-.005-.647-.126-1.123-.364-1.429-.237-.306-.596-.458-1.076-.458zm-57.25.076.997 4.1h.538l.78-2.933.8 2.933h.535l1.004-4.1h-.663l-.622 2.922-.78-2.922H17.1l-.762 2.85-.636-2.85zm17.531 0 1.205 4.066-.133.459c-.068.227-.157.386-.268.477-.109.094-.26.14-.455.14l-.148-.015v.569c.142.04.257.06.348.06a.867.867 0 0 0 .63-.276c.184-.182.327-.45.428-.8l1.341-4.68h-.712l-.747 2.986-.758-2.986zm9.194 0v2.672c.002.49.098.863.288 1.12.19.256.47.384.841.384.427 0 .752-.145.974-.436l.015.36h.637v-4.1h-.671v3.035c-.154.364-.435.546-.841.546-.384 0-.576-.32-.576-.959v-2.622zm3.816 0v4.1h.67v-4.1zm16.254 0v4.1h.67v-4.1zm-40.05.5c.25 0 .437.083.558.25.124.167.194.445.212.834v.09h-1.614c.017-.401.093-.697.227-.886.134-.192.34-.288.618-.288zm3.635 0c.25 0 .436.083.557.25.124.167.195.445.213.834v.09h-1.615c.018-.401.094-.697.228-.886.133-.192.34-.288.617-.288zm46.87 0c.25 0 .436.083.557.25.124.167.194.445.212.834v.09h-1.614c.017-.401.093-.697.227-.886.134-.192.34-.288.618-.288zm-32.898.019c.303 0 .522.104.656.31.136.205.205.55.205 1.035v.413c-.003.447-.07.777-.201.99s-.349.318-.652.318c-.354 0-.614-.185-.781-.554v-1.951c.17-.374.427-.561.773-.561zm11.096 0c.323 0 .57.164.743.493v2.069c-.165.336-.413.504-.747.504-.308 0-.53-.108-.667-.322-.136-.218-.204-.556-.204-1.016v-.41c.002-.447.072-.778.208-.992.136-.218.359-.326.667-.326z" fill="#4d4d4d" stroke-width=".221"/><g transform="translate(-23.191 4.48) scale(.4398)"><use transform="translate(126.77)" width="100%" height="100%" xlink:href="#a"/><path d="m222.98 110.96 8.242-1.136v7.965h-8.242zm0 14.573 8.242 1.136v-7.867h-8.242zm9.15 1.257 10.963 1.513v-9.5H232.13zm0-17.087v8.086h10.963v-9.599z" fill="#fff" stroke-width=".045"/></g><g transform="translate(-20.201 4.48) scale(.4398)"><circle id="a" transform="translate(169.57 -18.85) scale(.45513)" cx="-139.79" cy="301.22" r="40.057" fill="url(#b)" filter="url(#d)" stroke="url(#c)" stroke-width="1.163"/><path d="M94.384 123.85h1.93v-8.218h-1.93zm.961-9.296c.606 0 1.078-.465 1.078-1.047 0-.589-.473-1.054-1.078-1.054-.596 0-1.07.465-1.07 1.054 0 .582.474 1.047 1.07 1.047zm7.397-2.078c-3.264 0-5.311 2.225-5.311 5.785 0 3.558 2.047 5.776 5.311 5.776 3.257 0 5.304-2.218 5.304-5.777s-2.047-5.784-5.304-5.784zm0 1.706c1.993 0 3.265 1.582 3.265 4.078 0 2.49-1.272 4.07-3.265 4.07-2 0-3.264-1.58-3.264-4.07 0-2.496 1.264-4.078 3.264-4.078zm6.118 6.52c.085 2.063 1.776 3.335 4.35 3.335 2.706 0 4.412-1.334 4.412-3.459 0-1.667-.962-2.605-3.233-3.124l-1.287-.295c-1.373-.325-1.94-.76-1.94-1.504 0-.93.854-1.55 2.118-1.55 1.279 0 2.155.627 2.248 1.674h1.908c-.047-1.97-1.675-3.303-4.14-3.303-2.435 0-4.164 1.342-4.164 3.326 0 1.598.977 2.59 3.039 3.063l1.45.341c1.41.333 1.984.799 1.984 1.605 0 .93-.937 1.598-2.287 1.598-1.364 0-2.395-.675-2.52-1.706z" fill="#fff" stroke-width=".198"/></g><g transform="translate(-21.197 4.48) scale(.4398)"><use transform="translate(42.257)" width="100%" height="100%" xlink:href="#a"/><path d="M149.398 108.97c-.203.003-.39.033-.565.089-.185.059-.345.142-.482.249a1.223 1.223 0 0 0-.324.377 1.026 1.026 0 0 0-.126.473h.722a.642.642 0 0 1 .263-.4.8.8 0 0 1 .239-.112c.09-.026.188-.04.293-.04.258 0 .458.058.6.174.14.116.211.287.211.51v.298l-1.042.06c-.48.031-.846.142-1.098.333-.253.191-.38.456-.38.795 0 .173.033.33.097.472.064.141.154.262.269.361.115.1.251.177.412.232a1.622 1.622 0 0 0 .91.034 1.334 1.334 0 0 0 .63-.352c.085-.084.154-.179.208-.283h.019v.644h.736v-2.651c0-.192-.037-.366-.11-.522a1.133 1.133 0 0 0-.313-.398 1.453 1.453 0 0 0-.49-.255 2.122 2.122 0 0 0-.638-.088h-.041zm4.224 0c-.273 0-.521.046-.744.14a1.605 1.605 0 0 0-.57.4c-.16.173-.28.381-.367.624a2.383 2.383 0 0 0-.128.816c0 .307.043.581.13.826.086.245.208.452.368.623.159.17.35.302.573.393.223.091.472.137.748.137.232 0 .446-.033.64-.096a1.561 1.561 0 0 0 .507-.272 1.42 1.42 0 0 0 .35-.425 1.466 1.466 0 0 0 .167-.552h-.737a.83.83 0 0 1-.31.52c-.158.118-.363.178-.615.178a.989.989 0 0 1-.423-.091.916.916 0 0 1-.33-.262 1.21 1.21 0 0 1-.212-.418 1.914 1.914 0 0 1-.075-.56c0-.202.025-.385.075-.55.05-.164.12-.305.21-.42a.941.941 0 0 1 .326-.266.945.945 0 0 1 .425-.095c.133 0 .252.019.358.055a.877.877 0 0 1 .275.151c.078.065.141.14.189.228a.952.952 0 0 1 .1.285h.735a1.464 1.464 0 0 0-.15-.526 1.417 1.417 0 0 0-.338-.436 1.611 1.611 0 0 0-.51-.297 1.91 1.91 0 0 0-.667-.11zm-10.302.007c-.126 0-.246.016-.36.048a1.13 1.13 0 0 0-.312.139 1.102 1.102 0 0 0-.428.51h-.014v-.654h-.737v3.864h.73v-2.37c0-.126.063-.242.101-.348a.787.787 0 0 1 .758-.527c.114 0 .217.018.309.052a.635.635 0 0 1 .38.379c.035.09.053.191.053.302v2.513h.757v-2.399c0-.123.02-.237.061-.341a.785.785 0 0 1 .168-.269.734.734 0 0 1 .254-.175.832.832 0 0 1 .326-.063c.242 0 .428.07.558.209.131.139.196.335.196.589v2.449h.769v-2.634a1.48 1.48 0 0 0-.09-.525 1.116 1.116 0 0 0-.254-.401 1.146 1.146 0 0 0-.398-.256 1.406 1.406 0 0 0-.518-.091c-.138 0-.268.016-.393.05a1.25 1.25 0 0 0-.621.387c-.08.092-.146.196-.195.312h-.019a1.037 1.037 0 0 0-.397-.556 1.17 1.17 0 0 0-.684-.193zm6.91 2.154v.302a.816.816 0 0 1-.289.628c-.09.077-.198.138-.32.182a1.193 1.193 0 0 1-.399.065c-.223 0-.401-.049-.533-.147a.467.467 0 0 1-.2-.397c0-.17.067-.304.201-.4.134-.096.334-.152.6-.169zm-7.089 4.188c-3.379 0-5.499 2.356-5.499 6.103 0 3.748 2.12 6.096 5.5 6.096 3.378 0 5.49-2.35 5.49-6.096 0-3.748-2.112-6.103-5.49-6.103zm11.234 0c-2.496 0-4.246 1.391-4.246 3.396 0 1.628.99 2.618 3.166 3.158l1.514.376c1.554.393 2.226.966 2.226 1.915 0 1.096-1.106 1.898-2.644 1.898-1.603 0-2.774-.802-2.905-2.013h-1.678c.122 2.12 1.875 3.47 4.452 3.47 2.766 0 4.5-1.367 4.5-3.56 0-1.718-.998-2.676-3.428-3.266l-1.277-.318c-1.555-.392-2.193-.9-2.193-1.759 0-1.089 1.015-1.842 2.48-1.842 1.473 0 2.463.746 2.577 1.957h1.661c-.065-2.013-1.767-3.412-4.205-3.412zm-11.234 1.504c2.308 0 3.765 1.776 3.764 4.599 0 2.815-1.456 4.59-3.764 4.59-2.315 0-3.763-1.775-3.763-4.59 0-2.823 1.447-4.599 3.763-4.599z" fill="#FFF" stroke-width=".351"/></g><g transform="translate(-19.204 4.48) scale(.4398)"><use transform="translate(-42.256)" width="100%" height="100%" xlink:href="#a"/><path d="M71.15 105.67a.396.396 0 0 0-.356.2l-2.002 3.468c-1.528-.698-3.248-1.087-5.097-1.087s-3.57.389-5.097 1.087l-2.002-3.468a.4.4 0 0 0-.548-.145.4.4 0 0 0-.145.547l1.976 3.424c-3.408 1.847-5.716 5.296-6.098 9.335h23.827c-.38-4.039-2.69-7.488-6.1-9.335l1.976-3.424a.401.401 0 0 0-.333-.602zm-12.925 8.018a.999.999 0 1 1 0 1.997.999.999 0 0 1 0-1.997zm10.938 0a.999.999 0 1 1 0 1.997.999.999 0 0 1 0-1.997zm1.918 7.505a.51.51 0 0 0-.51.51.51.51 0 0 0 .51.511.51.51 0 0 0 .511-.51.51.51 0 0 0-.51-.511zm-8.446.038v2.167s-.341-.517-1.1-.517c-.82 0-1.662.657-1.662 1.807 0 1.051.741 1.794 1.663 1.794.76 0 1.1-.51 1.1-.51v.222c0 .105.099.222.222.222h.55v-5.185zm12.203 0v2.167s-.342-.517-1.1-.517c-.82 0-1.663.657-1.663 1.807 0 1.051.742 1.794 1.663 1.794.761 0 1.1-.51 1.1-.51v.222c0 .105.1.222.223.222h.55v-5.185zm-16.87 1.649c-.525 0-.866.244-1.041.507v-.427h-.773v3.234c0 .137.104.222.223.222h.55v-1.833c0-.482.322-.994.864-.994.503 0 .72.43.72.785v1.807c0 .117.095.235.236.235h.537v-2.213c0-.639-.458-1.323-1.316-1.323zm10.305 0c-.859 0-1.802.64-1.802 1.802 0 1.058.803 1.8 1.8 1.8 1.228 0 1.828-.987 1.828-1.793 0-.99-.772-1.81-1.826-1.81zm-14.842.001c-.82 0-1.663.657-1.663 1.807 0 1.051.74 1.794 1.663 1.794.76 0 1.1-.51 1.1-.51v.222c0 .105.099.222.222.222h.55v-3.456h-.773v.438s-.341-.517-1.1-.517zm12.53.04a.951.951 0 0 0-.93.615v-.576h-.772v3.234c0 .137.103.222.222.222h.55v-1.742c0-.482.296-.994.838-.994.2 0 .367.065.367.065v-.798s-.134-.027-.276-.027zm4.739.039v3.234c0 .137.104.222.223.222h.55v-3.456zm-17.132.628c.675 0 1.029.593 1.029 1.1 0 .563-.42 1.1-1.028 1.1-.507 0-1.015-.412-1.015-1.108 0-.628.437-1.092 1.014-1.092zm8.105 0c.675 0 1.029.593 1.029 1.1 0 .563-.42 1.1-1.028 1.1-.508 0-1.016-.412-1.016-1.108 0-.628.438-1.092 1.015-1.092zm12.202 0c.675 0 1.03.593 1.03 1.1 0 .563-.42 1.1-1.028 1.1-.507 0-1.016-.412-1.016-1.108 0-.628.438-1.092 1.015-1.092zm-5.6.013c.595 0 1.038.479 1.038 1.083 0 .615-.47 1.089-1.036 1.089a1.05 1.05 0 0 1-1.033-1.079c0-.663.484-1.093 1.032-1.093z" fill="#fff" stroke-width=".45"/></g><g transform="translate(-22.195 4.48) scale(.4398)"><use transform="translate(84.515)" width="100%" height="100%" xlink:href="#a"/><path d="M190.3 111.9c.048.024.086.082.144.082.052 0 .134-.02.138-.072.01-.067-.09-.11-.153-.14-.081-.032-.186-.047-.263-.004-.019.01-.038.033-.029.053.015.061.11.052.163.08zm-1.047.082c.057 0 .095-.058.143-.082.053-.029.149-.02.168-.076.009-.02-.01-.044-.029-.053-.077-.043-.182-.029-.263.005-.063.029-.163.072-.153.139.005.047.086.072.134.067zm10.575 13.335c-.172-.192-.254-.555-.344-.943-.087-.387-.187-.803-.503-1.071a1.293 1.293 0 0 0-.19-.139 1.06 1.06 0 0 0-.197-.095c.44-1.307.268-2.607-.178-3.784-.544-1.44-1.496-2.698-2.223-3.559-.818-1.029-1.612-2.004-1.598-3.444.024-2.195.244-6.275-3.625-6.28-4.899-.01-3.674 4.946-3.727 6.467-.081 1.12-.306 1.999-1.076 3.095-.904 1.076-2.176 2.812-2.78 4.625-.286.856-.42 1.727-.296 2.55-.31.277-.545.702-.794.965-.2.206-.492.283-.813.398-.32.114-.67.286-.885.693-.1.187-.133.387-.133.593 0 .187.028.378.057.565.057.387.12.75.038.995-.249.688-.282 1.167-.105 1.516.182.35.545.502.961.588.828.172 1.952.13 2.837.598.947.498 1.908.675 2.673.498.556-.125 1.01-.46 1.24-.967.597-.005 1.257-.258 2.31-.315.712-.058 1.607.253 2.635.196.029.11.067.22.12.32v.005c.397.799 1.138 1.163 1.927 1.1.795-.062 1.632-.526 2.31-1.334.651-.784 1.723-1.11 2.436-1.54.353-.216.64-.483.664-.876.02-.392-.21-.827-.741-1.42zm-9.39-15.14c.47-1.061 1.636-1.042 2.105-.019.31.68.172 1.479-.206 1.933a5.963 5.963 0 0 0-.602-.234c.052-.058.148-.13.186-.22.23-.565-.01-1.292-.435-1.307-.35-.023-.665.518-.564 1.101a3.387 3.387 0 0 0-.622-.21 1.905 1.905 0 0 1 .138-1.043zm-1.946-.55c.483 0 .995.68.913 1.603a1.721 1.721 0 0 0-.488.22c.058-.425-.157-.961-.459-.937-.402.033-.469 1.014-.086 1.344.048.038.09-.01-.282.263-.746-.699-.502-2.492.402-2.492zm-.65 2.904c.296-.22.65-.478.674-.502.224-.21.645-.68 1.334-.68.34 0 .746.11 1.239.426.301.196.54.21 1.081.445.402.168.656.464.502.87-.124.34-.526.69-1.086.866-.53.172-.946.765-1.827.713a1.333 1.333 0 0 1-.46-.1c-.382-.168-.582-.498-.955-.718-.412-.23-.632-.497-.704-.732-.067-.234 0-.43.201-.588zm.157 15.975c-.13 1.68-2.1 1.646-3.601.862-1.43-.756-3.282-.31-3.66-1.048-.114-.225-.114-.607.125-1.262v-.01c.114-.363.028-.765-.03-1.143-.056-.373-.086-.718.044-.957.167-.32.407-.435.708-.54.492-.177.564-.163.937-.474.264-.273.455-.617.684-.86.244-.264.478-.388.847-.33.387.056.722.325 1.047.764l.938 1.703c.455.952 2.062 2.315 1.961 3.296zm-.067-1.238a10.17 10.17 0 0 0-.689-.938c.34 0 .68-.105.8-.425.11-.297 0-.713-.355-1.191-.646-.87-1.832-1.555-1.832-1.555-.646-.402-1.01-.894-1.176-1.43-.168-.536-.144-1.115-.015-1.684.25-1.095.89-2.162 1.301-2.831.11-.082.039.153-.416.995-.407.77-1.167 2.549-.124 3.941.028-.99.263-2 .66-2.942.574-1.31 1.784-3.582 1.88-5.39.052.038.22.152.296.196.22.129.388.32.603.492.593.478 1.363.44 2.028.058.296-.168.536-.36.76-.43.474-.15.852-.412 1.067-.719.369 1.455 1.23 3.555 1.78 4.578.29.545.875 1.698 1.128 3.09a1.893 1.893 0 0 1 .521.067c.66-1.708-.56-3.55-1.114-4.06-.225-.221-.234-.317-.124-.312.603.536 1.397 1.612 1.684 2.822.133.555.157 1.134.019 1.708.784.325 1.717.856 1.468 1.664-.105-.005-.153 0-.2 0 .152-.483-.188-.842-1.091-1.248-.938-.411-1.723-.411-1.832.598-.58.201-.876.703-1.024 1.306-.134.535-.172 1.181-.21 1.908-.025.369-.173.861-.326 1.387-1.535 1.096-3.668 1.574-5.467.345zm12.312-.55c-.043.804-1.97.952-3.023 2.224-.632.75-1.406 1.167-2.086 1.22-.679.053-1.267-.23-1.611-.923-.225-.531-.116-1.105.052-1.737.177-.679.44-1.377.473-1.942.039-.726.082-1.363.201-1.85.125-.493.316-.823.656-1.01.014-.01.033-.014.048-.024.038.632.349 1.272.899 1.411.603.158 1.468-.358 1.837-.78.43-.014.75-.043 1.08.244.474.407.34 1.45.819 1.99.507.556.67.933.655 1.177zm-12.217-13.603c.096.09.225.215.383.34.316.248.755.506 1.306.506.554 0 1.076-.282 1.52-.516.235-.125.522-.335.709-.498.186-.162.282-.301.148-.315-.134-.015-.124.124-.287.244-.21.153-.464.354-.665.469-.354.2-.933.487-1.43.487-.497 0-.895-.23-1.191-.464-.148-.119-.273-.239-.369-.33-.071-.067-.09-.22-.205-.234-.067-.005-.086.177.081.31z" fill="#fff" stroke-width=".048"/></g><g transform="translate(-24.188 4.48) scale(.4398)"><use transform="translate(169.03)" width="100%" height="100%" xlink:href="#a"/><path d="M265.43 109.3v19.74h19.74V109.3h-7.613v.106a2.264 2.264 0 1 1-4.527 0v-.106zm4.585 10.638h1.308l.893 4.757h.017l1.073-4.757h1.224l.97 4.815h.018l1.018-4.815h1.284l-1.668 6.99h-1.298l-.962-4.757h-.025l-1.029 4.757h-1.322zm9.28 0h2.062l2.048 6.99h-1.35l-.445-1.556h-2.35l-.343 1.556h-1.314zm.785 1.723-.57 2.564h1.775l-.655-2.564z" fill="#fff" stroke-width=".032"/></g><style></style></svg>