<?xml version="1.0" encoding="UTF-8" standalone="no"?>
<!-- Created with Inkscape (http://www.inkscape.org/) -->

<svg
   width="1280"
   height="640"
   viewBox="0 0 338.66667 169.33334"
   version="1.1"
   id="svg5"
   inkscape:version="1.1.1 (3bf5ae0d25, 2021-09-20)"
   sodipodi:docname="header.svg"
   inkscape:export-filename="header.png"
   inkscape:export-xdpi="96"
   inkscape:export-ydpi="96"
   xmlns:inkscape="http://www.inkscape.org/namespaces/inkscape"
   xmlns:sodipodi="http://sodipodi.sourceforge.net/DTD/sodipodi-0.dtd"
   xmlns:xlink="http://www.w3.org/1999/xlink"
   xmlns="http://www.w3.org/2000/svg"
   xmlns:svg="http://www.w3.org/2000/svg">
  <sodipodi:namedview
     id="namedview7"
     pagecolor="#ffffff"
     bordercolor="#666666"
     borderopacity="1.0"
     inkscape:pageshadow="2"
     inkscape:pageopacity="0.0"
     inkscape:pagecheckerboard="0"
     inkscape:document-units="mm"
     showgrid="false"
     inkscape:zoom="0.366586"
     inkscape:cx="983.39817"
     inkscape:cy="725.61418"
     inkscape:window-width="1920"
     inkscape:window-height="1009"
     inkscape:window-x="1912"
     inkscape:window-y="-8"
     inkscape:window-maximized="1"
     inkscape:current-layer="layer1"
     fit-margin-top="1.3"
     fit-margin-left="1.3"
     fit-margin-right="1.3"
     fit-margin-bottom="1.3"
     lock-margins="true"
     units="px" />
  <defs
     id="defs2"><rect
   x="-70.924698"
   y="593.31238"
   width="325.9808"
   height="60.013203"
   id="rect26256" />
<rect
   x="95.475548"
   y="171.85599"
   width="327.34473"
   height="107.75098"
   id="rect5982" />
<clipPath
   id="clipPath3947"
   clipPathUnits="userSpaceOnUse">
  <ellipse
     ry="212.23589"
     rx="203.24309"
     cy="256.47083"
     cx="256.52075"
     id="ellipse3949"
     style="opacity:1;fill:#ffc82d;fill-opacity:1;stroke:none;stroke-width:0;stroke-linecap:butt;stroke-linejoin:miter;stroke-miterlimit:4;stroke-dasharray:none;stroke-dashoffset:0;stroke-opacity:1" />
</clipPath>
<clipPath
   id="clipPath4806"
   clipPathUnits="userSpaceOnUse">
  <circle
     r="211.62711"
     cy="248.91539"
     cx="249.4608"
     id="circle4808"
     style="opacity:1;fill:#f6c439;fill-opacity:1;stroke:none;stroke-width:0;stroke-linecap:butt;stroke-linejoin:miter;stroke-miterlimit:4;stroke-dasharray:none;stroke-dashoffset:0;stroke-opacity:1" />
</clipPath>
<clipPath
   id="clipPath4837"
   clipPathUnits="userSpaceOnUse">
  <circle
     r="207.13615"
     cy="256"
     cx="256"
     id="circle4839"
     style="opacity:1;fill:#0fa15f;fill-opacity:1;stroke:none;stroke-width:0;stroke-linecap:butt;stroke-linejoin:miter;stroke-miterlimit:4;stroke-dasharray:none;stroke-dashoffset:0;stroke-opacity:1" />
</clipPath>
<clipPath
   id="clipPath5050"
   clipPathUnits="userSpaceOnUse">
  <path
     inkscape:connector-curvature="0"
     id="path5052"
     d="M 255.99999,45.26758 A 210.73167,210.73167 0 0 0 45.267565,256 210.73167,210.73167 0 0 0 255.99999,466.73242 210.73167,210.73167 0 0 0 466.73244,256 210.73167,210.73167 0 0 0 255.99999,45.26758 Z m 0,111.84375 A 98.888542,98.888542 0 0 1 354.88866,256 98.888542,98.888542 0 0 1 255.99999,354.88867 98.888542,98.888542 0 0 1 157.11132,256 98.888542,98.888542 0 0 1 255.99999,157.11133 Z"
     style="opacity:1;fill:#f9f9f9;fill-opacity:1;stroke:none;stroke-width:0;stroke-linecap:butt;stroke-linejoin:miter;stroke-miterlimit:4;stroke-dasharray:none;stroke-dashoffset:0;stroke-opacity:1" />
</clipPath>
<clipPath
   id="clipPath5127"
   clipPathUnits="userSpaceOnUse">
  <path
     inkscape:connector-curvature="0"
     id="path5129"
     d="M 255.99999,45.26758 A 210.73167,210.73167 0 0 0 45.26756,256 210.73167,210.73167 0 0 0 255.99999,466.73242 210.73167,210.73167 0 0 0 466.73244,256 210.73167,210.73167 0 0 0 255.99999,45.26758 Z m 0,111.84375 A 98.888542,98.888542 0 0 1 354.88864,256 98.888542,98.888542 0 0 1 255.99999,354.88867 98.888542,98.888542 0 0 1 157.11132,256 98.888542,98.888542 0 0 1 255.99999,157.11133 Z"
     style="opacity:1;fill:#f9f9f9;fill-opacity:1;stroke:none;stroke-width:0;stroke-linecap:butt;stroke-linejoin:miter;stroke-miterlimit:4;stroke-dasharray:none;stroke-dashoffset:0;stroke-opacity:1" />
</clipPath>

	
	

		
		
		
		
		
	</defs>
  <g
     inkscape:label="Layer 1"
     inkscape:groupmode="layer"
     id="layer1"
     transform="translate(121.80679,-30.928981)">
    <g
       id="g57961"
       transform="matrix(0.45512819,0,0,0.45512819,-0.11587291,25.027345)">
      <g
         id="g45"
         transform="matrix(0.26458333,0,0,0.26458333,63.605688,31.499204)">
        <path
           style="opacity:1;fill:#91b0e8;fill-opacity:1;stroke:none;stroke-width:0;stroke-linecap:butt;stroke-linejoin:miter;stroke-miterlimit:4;stroke-dasharray:none;stroke-dashoffset:0;stroke-opacity:1"
           d="m 455.38343,151.67357 c -315.14389,251.77256 -157.57195,125.88628 0,0 z m 0,0 -182.15835,0.0709 c 50.16028,8.2262 88.43552,51.76739 88.43598,104.25553 -0.0369,25.81373 -9.52228,50.72096 -26.66551,70.02016 l -90.33991,154.69625 c 3.75834,0.18663 7.53969,0.28361 11.34436,0.2836 124.26425,4.4e-4 225.00044,-100.73575 225,-225 1.4e-4,-37.65523 -9.26487,-73.14043 -25.61657,-104.32643 z"
           id="path4797"
           inkscape:connector-curvature="0"
           sodipodi:nodetypes="cccccccssc" />
        <path
           style="fill:#396bd7;fill-opacity:1;stroke-width:1.19056"
           clip-path="none"
           d="M 256,30.999995 C 175.10717,30.999707 104.19611,73.695969 64.543022,137.77464 L 152.34506,276.05075 C 152.75237,282.63197 150.34377,256.47274 150.33894,256 150.33945,197.64522 197.64522,150.33945 256,150.33894 c 5.47864,0.0439 16.79301,1.14833 22.19877,2.04005 l 177.18466,-0.70542 C 417.77367,79.944188 342.60901,30.999685 256,30.999995 Z M 64.515913,137.81843 c -54.565551,261.00932 -27.28277,130.50467 0,0 z"
           id="path3923"
           inkscape:connector-curvature="0"
           sodipodi:nodetypes="sccccccscc" />
        <path
           style="fill:#6199f6;fill-opacity:1;stroke-width:1.19056"
           clip-path="none"
           d="M 64.543022,137.77464 C 43.282672,172.13098 30.99984,212.6286 31,256 30.999573,376.45958 125.66286,474.80722 244.65564,480.7164 L 334.99555,326.02016 C 314.97124,348.64934 286.21674,361.62269 256,361.66106 205.40869,361.61946 161.94586,325.72274 152.34506,276.05075 Z"
           id="path3923-1"
           inkscape:connector-curvature="0"
           sodipodi:nodetypes="csccccc" />
        <circle
           style="opacity:1;fill:#ffffff;fill-opacity:1;stroke:none;stroke-width:0;stroke-linecap:butt;stroke-linejoin:miter;stroke-miterlimit:4;stroke-dasharray:none;stroke-dashoffset:0;stroke-opacity:1"
           id="path4162"
           cx="256"
           cy="256"
           r="105.66199" />
        <circle
           style="opacity:1;fill:#4688f4;fill-opacity:1;stroke:none;stroke-width:0;stroke-linecap:butt;stroke-linejoin:miter;stroke-miterlimit:4;stroke-dasharray:none;stroke-dashoffset:0;stroke-opacity:1"
           id="path3956"
           cx="256"
           cy="256"
           clip-path="none"
           r="87.187675" />
        <path
           inkscape:connector-curvature="0"
           style="opacity:0.1;fill:#367100;fill-opacity:1;stroke:none;stroke-width:0;stroke-linecap:butt;stroke-linejoin:miter;stroke-miterlimit:4;stroke-dasharray:none;stroke-dashoffset:0;stroke-opacity:1"
           d="m 76.519531,145.27539 82.558589,129.43945 31.16747,-34.48226 z m 366.238279,12.96484 -165.96669,0.70953 16.34175,37.87768 149.62494,-38.58717 z m -167.4029,150.67233 -29.98186,157.57377 84.55468,-144.8086 z"
           id="rect5020-5-5"
           clip-path="url(#clipPath5127)"
           transform="matrix(1.0677047,0,0,1.0677047,-17.332409,-17.332414)"
           sodipodi:nodetypes="ccccccccccccc" />
      </g>
      <g
         class="fa-group"
         id="g315"
         transform="matrix(0.26458333,0,0,0.26458333,18.487981,32.229001)">
        <path
           class="fa-secondary"
           fill="currentColor"
           d="m 86.1,428.1 c 0,0.8 13.2,-5.4 34.9,-40.2 -6.7,6.3 -29.1,24.5 -34.9,40.2 z m 93.8,-218.9 c -2.9,0 -3,30.9 2,46.9 5.6,-10 6.4,-46.9 -2,-46.9 z m 80.2,142.1 c 37.1,15.8 42.8,9 42.8,9 4.1,-2.7 -2.5,-11.9 -42.8,-9 z m -79.9,-48 c -7.7,20.2 -17.3,43.3 -28.4,62.7 18.3,-7 39,-17.2 62.9,-21.9 -12.7,-9.6 -24.9,-23.4 -34.5,-40.8 z M 272,128 A 16,16 0 0 1 256,112 V 0 H 24 A 23.94,23.94 0 0 0 0,23.88 V 488 a 23.94,23.94 0 0 0 23.88,24 H 360 a 23.94,23.94 0 0 0 24,-23.88 V 128 Z m 21.9,254.4 c -16.9,0 -42.3,-7.7 -64,-19.5 -24.9,4.1 -53.2,14.7 -79,23.2 -25.4,43.8 -43.2,61.8 -61.1,61.8 -5.5,0 -15.9,-3.1 -21.5,-10 -19.1,-23.5 27.4,-54.1 54.5,-68 0.1,0 0.1,-0.1 0.2,-0.1 12.1,-21.2 29.2,-58.2 40.8,-85.8 -8.5,-32.9 -13.1,-58.7 -8.1,-77 5.4,-19.7 43.1,-22.6 47.8,6.8 5.4,17.6 -1.7,45.7 -6.2,64.2 9.4,24.8 22.7,41.6 42.7,53.8 19.3,-2.5 59.7,-6.4 73.6,7.2 11.5,11.4 9.5,43.4 -19.7,43.4 z"
           opacity="0.4"
           id="path311"
           style="opacity:1;fill:#fec7c3;fill-opacity:1" />
        <path
           id="path1252"
           d="m 197.9082,552.48633 c -10.6875,-0.4875 -21.46211,5.16367 -24.16211,15.01367 -5,18.3 -0.40039,44.1 8.09961,77 -11.6,27.6 -28.69883,64.59883 -40.79882,85.79883 -0.1,0 -0.10118,0.0996 -0.20118,0.0996 -27.1,13.9 -73.599997,44.5 -54.499997,68 5.6,6.9 15.999997,10 21.499997,10 17.9,0 35.69961,-17.99883 61.09961,-61.79883 25.8,-8.5 54.1,-19.10117 79,-23.20117 21.7,11.8 47.1,19.5 64,19.5 29.2,0 31.20117,-31.99844 19.70117,-43.39844 -13.9,-13.6 -54.29961,-9.70117 -73.5996,-7.20117 -20,-12.2 -33.30118,-28.99883 -42.70118,-53.79883 4.5,-18.5 11.60117,-46.60117 6.20118,-64.20117 -2.35,-14.7 -12.95118,-21.325 -23.63868,-21.8125 z m 0.0371,17.21289 c 8.4,0 7.6,36.90039 2,46.90039 -5,-16 -4.9,-46.90039 -2,-46.90039 z m 0.30078,94.09961 c 9.6,17.4 21.8,31.20078 34.5,40.80078 -23.9,4.7 -44.60039,14.90039 -62.90039,21.90039 11.1,-19.4 20.70039,-42.50117 28.40039,-62.70117 z m 93.47852,47.44336 c 28.20508,-0.14492 32.8082,7.19414 29.2207,9.55664 0,0 -5.69883,6.8 -42.79883,-9 5.0375,-0.3625 9.54883,-0.53594 13.57813,-0.55664 z m -152.67773,37.15625 c -21.7,34.8 -34.9004,41.00117 -34.9004,40.20117 5.8,-15.7 28.2004,-33.90117 34.9004,-40.20117 z"
           transform="translate(-18.046251,-360.49928)"
           style="fill:#f40f02;fill-opacity:1" />
        <path
           d="M 377,105 279.1,7 a 24,24 0 0 0 -17,-7 H 256 v 112 a 16,16 0 0 0 16,16 h 112 v -6.1 A 23.9,23.9 0 0 0 377,105 Z"
           id="path313"
           style="fill:#fea5a2;fill-opacity:1" />
      </g>
    </g>
    <text
       xml:space="preserve"
       transform="matrix(0.48903711,0,0,0.48903711,9.2421975,-183.88135)"
       id="text26254"
       style="font-size:40px;line-height:1.25;font-family:Roboto;-inkscape-font-specification:Roboto;white-space:pre;shape-inside:url(#rect26256);fill:#4d4d4d"><tspan
         x="-70.923828"
         y="628.3125"
         id="tspan150137"><tspan
           style="font-family:'Roboto Black';-inkscape-font-specification:'Roboto Black, '"
           id="tspan150135">PDFium binaries</tspan></tspan></text>
    <g
       id="g57946"
       transform="matrix(0.45512819,0,0,0.45512819,13.556589,24.56113)">
      <g
         id="g57813"
         transform="translate(196.74794,-28.869987)">
        <use
           x="0"
           y="0"
           xlink:href="#path31940"
           id="use56971"
           transform="translate(202.81167,1.4435018)"
           width="100%"
           height="100%" />
        <path
           fill="currentColor"
           d="m 40.922507,286.6576 18.111286,-2.49572 v 17.49969 H 40.922507 Z m 0,32.02028 18.111286,2.49574 V 303.89095 H 40.922507 Z m 20.10392,2.76208 24.0892,3.32434 v -20.87335 h -24.0892 z m 0,-37.54442 v 17.76603 h 24.0892 v -21.09038 z"
           id="path56880"
           style="fill:#ffffff;stroke-width:0.0986455" />
      </g>
      <g
         id="g57827"
         transform="translate(121.86642,-27.426485)">
        <g
           id="g56980">
          <circle
             style="fill:#b3b3b3;fill-opacity:1;stroke-width:0.264583"
             id="path31940"
             cx="-139.7926"
             cy="301.22424"
             r="40.057106" />
        </g>
        <path
           d="m -165.20213,313.54095 h 4.2419 v -18.05774 h -4.2419 z m 2.11243,-20.42583 c 1.3288,0 2.36798,-1.02217 2.36798,-2.2998 0,-1.29474 -1.03918,-2.31686 -2.36798,-2.31686 -1.31174,0 -2.35091,1.02216 -2.35091,2.31686 0,1.27766 1.03917,2.2998 2.35091,2.2998 z m 16.25267,-4.56568 c -7.17188,0 -11.66953,4.88927 -11.66953,12.7088 0,7.81953 4.4972,12.69179 11.66953,12.69179 7.15491,0 11.65254,-4.87226 11.65254,-12.69179 0,-7.81953 -4.49721,-12.7088 -11.65254,-12.7088 z m 0,3.74787 c 4.37815,0 7.1719,3.4753 7.1719,8.96085 0,5.46843 -2.79383,8.94382 -7.1719,8.94382 -4.39516,0 -7.17188,-3.4753 -7.17188,-8.94382 0,-5.48544 2.77681,-8.96085 7.17188,-8.96085 z m 13.44192,14.32723 c 0.1874,4.53166 3.90119,7.32541 9.55702,7.32541 5.94552,0 9.69349,-2.93016 9.69349,-7.59798 0,-3.66266 -2.11245,-5.72401 -7.10386,-6.86531 l -2.82793,-0.64737 c -3.01535,-0.71548 -4.25893,-1.66949 -4.25893,-3.30492 0,-2.04428 1.87395,-3.40715 4.65073,-3.40715 2.81089,0 4.73576,1.37992 4.94029,3.67972 h 4.19081 c -0.1022,-4.32707 -3.67971,-7.25737 -9.09691,-7.25737 -5.34936,0 -9.14836,2.94718 -9.14836,7.30839 0,3.50938 2.1465,5.68999 6.67778,6.72924 l 3.18567,0.7496 c 3.10052,0.73254 4.36116,1.75466 4.36116,3.52637 0,2.0443 -2.06134,3.50938 -5.02535,3.50938 -2.9983,0 -5.2639,-1.48209 -5.53647,-3.74789 h -4.25892 z"
           id="path57000"
           style="fill:#ffffff;stroke-width:0.436114" />
      </g>
      <g
         id="g57822"
         transform="translate(113.37665,-31.159697)">
        <use
           x="0"
           y="0"
           xlink:href="#path31940"
           id="use36068"
           transform="translate(101.05417,3.7332118)"
           width="100%"
           height="100%" />
        <g
           id="g57455">
          <path
             class="st1"
             d="m -34.27003,291.7657 h 0.0408 v 1.41507 h 1.61693 v -5.82526 c 0,-0.42122 -0.0815,-0.80361 -0.24263,-1.14525 -0.1611,-0.34163 -0.39017,-0.63278 -0.68715,-0.87544 -0.297,-0.24263 -0.6561,-0.42705 -1.07538,-0.55904 -0.41929,-0.13199 -0.88709,-0.19605 -1.40343,-0.19605 -0.47945,0 -0.92202,0.066 -1.32966,0.19605 -0.40764,0.13007 -0.75896,0.31252 -1.05984,0.5474 -0.30087,0.23487 -0.53769,0.51052 -0.71238,0.82886 -0.17468,0.31835 -0.26788,0.66578 -0.27758,1.04043 h 1.58782 c 0.0369,-0.18245 0.10482,-0.3494 0.20382,-0.49692 0.0971,-0.14945 0.22322,-0.27758 0.37464,-0.38433 0.15142,-0.10674 0.32611,-0.18829 0.52411,-0.24651 0.19798,-0.0563 0.41346,-0.0854 0.64249,-0.0854 0.56876,0 1.00746,0.12811 1.31802,0.38239 0.31058,0.2543 0.46586,0.62893 0.46586,1.11808 v 0.65608 l -2.2905,0.13201 c -1.05401,0.0679 -1.85762,0.31252 -2.4128,0.73181 -0.55516,0.41928 -0.83273,1.00159 -0.83273,1.74698 0,0.38047 0.0699,0.72596 0.21158,1.03655 0.13976,0.31058 0.33776,0.57458 0.5901,0.79391 0.25233,0.21934 0.55321,0.38821 0.90649,0.50856 0.35134,0.12034 0.73763,0.18053 1.16077,0.18053 0.2873,0 0.56681,-0.0349 0.84051,-0.10482 0.27371,-0.0699 0.52605,-0.17081 0.75898,-0.30086 0.23099,-0.13005 0.43867,-0.28924 0.62503,-0.47363 0.18441,-0.18443 0.33581,-0.39213 0.45615,-0.62118 z m -0.64637,-0.39406 c -0.198,0.17081 -0.43481,0.30476 -0.70461,0.39986 -0.26981,0.0951 -0.56295,0.14364 -0.87545,0.14364 -0.48917,0 -0.88126,-0.10677 -1.17244,-0.32417 -0.29311,-0.21546 -0.43869,-0.50662 -0.43869,-0.87154 0,-0.37465 0.14754,-0.66774 0.44258,-0.87933 0.29503,-0.20964 0.73372,-0.33387 1.31801,-0.37074 l 2.06339,-0.1417 v 0.66386 c 0,0.28145 -0.0563,0.53964 -0.16889,0.77451 -0.11062,0.23487 -0.26592,0.43675 -0.4639,0.60561 z"
             id="path57026"
             style="fill:#ffffff;stroke-width:0.20429" />
          <path
             class="st1"
             d="m -23.07178,310.34013 -2.8049,-0.70073 c -3.41634,-0.86186 -4.81783,-1.978 -4.81783,-3.86474 0,-2.39145 2.2284,-4.04526 5.44676,-4.04526 3.23776,0 5.4118,1.63636 5.66413,4.29762 h 3.64927 c -0.14363,-4.42185 -3.8822,-7.49655 -9.23963,-7.49655 -5.48363,0 -9.3309,3.05723 -9.3309,7.46162 0,3.57746 2.17403,5.75343 6.95693,6.93944 l 3.32704,0.8269 c 3.4144,0.86186 4.88963,2.12163 4.88963,4.20639 0,2.4089 -2.42833,4.17143 -5.80777,4.17143 -3.52312,0 -6.09507,-1.76253 -6.38236,-4.42377 h -3.68616 c 0.26786,4.6567 4.11707,7.6227 9.77929,7.6227 6.0776,0 9.88799,-3.00289 9.88993,-7.8207 0,-3.77548 -2.19346,-5.87962 -7.53343,-7.17435 z"
             id="path57028"
             style="fill:#ffffff;stroke-width:0.20429" />
          <path
             class="st1"
             d="m -41.62292,293.18269 v -5.78642 c 0,-0.42317 -0.066,-0.8075 -0.19606,-1.15301 -0.13005,-0.34552 -0.31641,-0.64057 -0.55904,-0.88319 -0.24264,-0.24263 -0.53381,-0.42899 -0.87544,-0.56294 -0.34166,-0.13393 -0.72014,-0.19992 -1.13751,-0.19992 -0.3028,0 -0.59009,0.0369 -0.8638,0.11259 -0.27368,0.0757 -0.52604,0.18439 -0.75509,0.32805 -0.22905,0.14365 -0.43285,0.31834 -0.6095,0.52022 -0.17665,0.20188 -0.32029,0.43093 -0.42899,0.68715 h -0.0408 c -0.17081,-0.53187 -0.46199,-0.93949 -0.87155,-1.2229 -0.40764,-0.28341 -0.91039,-0.42511 -1.50437,-0.42511 -0.27562,0 -0.53961,0.0349 -0.79002,0.10482 -0.24846,0.0699 -0.47945,0.17081 -0.68715,0.30476 -0.20965,0.13394 -0.39212,0.29312 -0.55128,0.48139 -0.15918,0.18635 -0.28923,0.40182 -0.38821,0.64057 h -0.0311 v -1.43836 h -1.61888 v 8.4904 h 1.60141 v -5.208 c 0,-0.27562 0.13975,-0.53186 0.22517,-0.7648 0.0873,-0.23487 0.21158,-0.43675 0.37074,-0.60949 0.15919,-0.17083 0.3494,-0.30476 0.57069,-0.40182 0.22322,-0.0971 0.46392,-0.14558 0.72402,-0.14558 0.25042,0 0.47557,0.0388 0.67745,0.11453 0.19993,0.0757 0.37268,0.18247 0.51246,0.32416 0.14169,0.1417 0.24845,0.31059 0.32416,0.50856 0.0757,0.19798 0.11453,0.41929 0.11453,0.66386 v 5.5205 h 1.66547 v -5.2701 c 0,-0.27177 0.0447,-0.52216 0.13393,-0.75121 0.0874,-0.22905 0.20964,-0.42705 0.36687,-0.59009 0.15528,-0.16499 0.34357,-0.29312 0.55903,-0.38433 0.21741,-0.0912 0.45616,-0.13782 0.71629,-0.13782 0.53186,0 0.94142,0.15334 1.22678,0.4581 0.28727,0.30476 0.43092,0.73763 0.43092,1.29471 v 5.38074 h 1.68877 z"
             id="path57030"
             style="fill:#ffffff;stroke-width:0.20429" />
          <path
             class="st1"
             d="m -49.85709,298.53045 c -7.42472,0 -12.08143,5.17692 -12.08143,13.41111 0,8.23416 4.65671,13.39362 12.08143,13.39362 7.42473,0 12.06396,-5.1614 12.06396,-13.39362 0,-8.23419 -4.63923,-13.41111 -12.06396,-13.41111 z m 0,23.49514 c -5.08765,0 -8.26912,-3.90161 -8.26912,-10.08599 0,-6.20183 3.18147,-10.10346 8.26912,-10.10346 5.07017,0 8.27106,3.90161 8.26912,10.10346 0,6.18436 -3.19895,10.08599 -8.26912,10.08599 z"
             id="path57032"
             style="fill:#ffffff;stroke-width:0.20429" />
          <path
             class="st1"
             d="m -28.46223,286.80424 c 0.198,-0.25234 0.43675,-0.4484 0.71628,-0.58621 0.27759,-0.13782 0.59009,-0.2077 0.93366,-0.2077 0.29312,0 0.55322,0.0388 0.78615,0.12034 0.23099,0.0796 0.43287,0.19024 0.60562,0.33193 0.17083,0.1417 0.30864,0.30862 0.41346,0.5008 0.10482,0.19217 0.17859,0.40182 0.21935,0.62504 h 1.61693 c -0.0369,-0.40568 -0.14558,-0.79197 -0.32805,-1.15689 -0.18245,-0.36492 -0.43091,-0.68327 -0.74343,-0.95695 -0.31252,-0.27371 -0.68521,-0.49112 -1.12196,-0.65222 -0.43481,-0.1611 -0.92396,-0.24263 -1.46553,-0.24263 -0.5998,0 -1.14525,0.10286 -1.63442,0.30862 -0.48915,0.20576 -0.9065,0.49887 -1.25395,0.87932 -0.34746,0.38045 -0.61532,0.83855 -0.80556,1.37236 -0.19023,0.53575 -0.28535,1.1336 -0.28147,1.79164 0,0.67356 0.0951,1.27724 0.28535,1.81493 0.19024,0.53769 0.46004,0.99385 0.80944,1.36848 0.3494,0.37462 0.77062,0.66386 1.25977,0.86379 0.49112,0.19992 1.03657,0.30086 1.64219,0.30086 0.51052,0 0.98024,-0.0718 1.40729,-0.21156 0.42704,-0.13976 0.79779,-0.33969 1.11419,-0.59788 0.31447,-0.25816 0.57069,-0.56874 0.76868,-0.93366 0.198,-0.36492 0.32027,-0.76868 0.36687,-1.21126 h -1.61888 c -0.10482,0.5008 -0.32999,0.88127 -0.67938,1.14137 -0.3494,0.2601 -0.79974,0.39015 -1.35295,0.39015 -0.33775,0 -0.64832,-0.0679 -0.92979,-0.19991 -0.28147,-0.132 -0.5241,-0.32417 -0.72404,-0.57457 -0.20188,-0.25042 -0.35716,-0.55516 -0.46586,-0.91814 -0.11065,-0.36104 -0.16499,-0.77256 -0.16499,-1.23066 0,-0.44257 0.0544,-0.84437 0.16499,-1.20737 0.1087,-0.36106 0.26204,-0.66968 0.46004,-0.92202 z"
             id="path57034"
             style="fill:#ffffff;stroke-width:0.20429" />
        </g>
      </g>
      <g
         id="g57809"
         transform="translate(-271.6676,-28.869985)">
        <use
           x="0"
           y="0"
           xlink:href="#g56980"
           id="use57487"
           transform="translate(300.96962,1.4434994)"
           width="100%"
           height="100%" />
        <g
           transform="matrix(0.19800325,0,0,0.19800325,121.72146,223.18073)"
           id="g57727"
           style="fill:#ffffff">
          <g
             transform="matrix(1.32125,0,0,1.32125,480.53,-75.04)"
             id="g57723"
             style="fill:#ffffff">
            <path
               d="m -299.036,399.581 c -6.88566,0 -13.966,5.51768 -13.966,15.1756 0,8.82926 6.22524,15.0656 13.966,15.0656 6.38958,0 9.23732,-4.28876 9.23732,-4.28876 v 1.86946 c 0,0.8836 0.83542,1.86946 1.86946,1.86946 h 4.61866 v -29.0316 h -6.48812 v 3.68394 c 0,0 -2.8716,-4.34376 -9.23732,-4.34376 z m 1.15574,5.93636 c 5.66836,0 8.64172,4.9851 8.64172,9.2371 0,4.73604 -3.5303,9.23388 -8.6297,9.2339 -4.26278,0 -8.53284,-3.45238 -8.53284,-9.2964 0,-5.27526 3.67466,-9.1746 8.52082,-9.1746 z"
               id="path57707"
               style="fill:#ffffff" />
            <path
               d="m -274.293,429.272 c -0.99682,0 -1.86946,-0.71498 -1.86946,-1.86946 v -27.1621 h 6.48812 v 3.59262 c 1.47022,-2.20986 4.34254,-4.26128 8.75132,-4.26128 7.2059,0 11.043,5.74422 11.043,11.1156 v 18.5846 h -4.5087 c -1.18224,0 -1.97942,-0.9897 -1.97942,-1.97942 v -15.1756 c 0,-2.97738 -1.82422,-6.59332 -6.04314,-6.59332 -4.55234,0 -7.26302,4.30228 -7.26302,8.3528 v 15.3955 z"
               id="path57709"
               style="fill:#ffffff" />
            <path
               d="m -230.966,399.581 c -6.88564,0 -13.9659,5.51768 -13.9659,15.1756 0,8.82926 6.22524,15.0656 13.9659,15.0656 6.38958,0 9.23734,-4.28876 9.23734,-4.28876 v 1.86946 c 0,0.8836 0.83542,1.86946 1.86946,1.86946 h 4.61866 v -43.5474 h -6.48812 v 18.1997 c 0,0 -2.87162,-4.34374 -9.23734,-4.34374 z m 1.15576,5.93636 c 5.66836,0 8.64172,4.9851 8.64172,9.2371 0,4.73604 -3.53032,9.23388 -8.6297,9.2339 -4.26278,0 -8.53284,-3.45238 -8.53284,-9.2964 0,-5.27528 3.67464,-9.1746 8.52082,-9.1746 z"
               id="path57711"
               style="fill:#ffffff" />
            <path
               d="m -206.223,429.272 c -0.99682,0 -1.86946,-0.71498 -1.86946,-1.86946 v -27.1621 h 6.48812 v 4.8386 c 1.11676,-2.7106 3.52662,-5.1685 7.80774,-5.1685 1.19346,0 2.30934,0.21994 2.30934,0.21994 v 6.70804 c 0,0 -1.39338,-0.54984 -3.07912,-0.54984 -4.55234,0 -7.03796,4.30228 -7.03796,8.35282 v 14.6305 z"
               id="path57713"
               style="fill:#ffffff" />
            <path
               d="m -152.119,429.272 c -0.99682,0 -1.86946,-0.71498 -1.86946,-1.86946 v -27.1621 h 6.48812 v 29.0316 z"
               id="path57715"
               style="fill:#ffffff" />
            <path
               d="m -128.476,399.581 c -6.88566,0 -13.966,5.51768 -13.966,15.1756 0,8.82926 6.22524,15.0656 13.966,15.0656 6.38956,0 9.23731,-4.28876 9.23731,-4.28876 v 1.86946 c 0,0.8836 0.83542,1.86946 1.86946,1.86946 h 4.61866 v -43.5474 h -6.48812 v 18.1997 c 0,0 -2.87159,-4.34374 -9.23731,-4.34374 z m 1.15574,5.93636 c 5.66836,0 8.64171,4.9851 8.64171,9.2371 0,4.73604 -3.53029,9.23388 -8.62969,9.2339 -4.26278,0 -8.53284,-3.45238 -8.53284,-9.2964 0,-5.27528 3.67466,-9.1746 8.52082,-9.1746 z"
               id="path57717"
               style="fill:#ffffff" />
            <circle
               cx="-150.78999"
               cy="389.69"
               r="4.29"
               id="circle57719"
               style="fill:#ffffff" />
            <path
               d="m -174.376,399.571 c -7.21114,0 -15.1337,5.38276 -15.1337,15.1337 0,8.88566 6.74818,15.1183 15.118,15.1183 10.315,0 15.3517,-8.29218 15.3517,-15.062 0,-8.30724 -6.48568,-15.19 -15.336,-15.19 z m 0.0236,6.059 c 4.9867,0 8.70638,4.01914 8.70638,9.09298 0,5.16184 -3.94862,9.14498 -8.69156,9.14498 -4.40284,0 -8.68276,-3.583 -8.68276,-9.0582 0,-5.56646 4.07064,-9.17976 8.66794,-9.17976 z"
               id="path57721"
               style="fill:#ffffff" />
          </g>
          <path
             d="m 263.837,306.59 21.9331,-37.9944 c 1.2377,-2.12998 0.48933,-4.83565 -1.61189,-6.07335 -2.1012,-1.23768 -4.83565,-0.5181 -6.04456,1.61189 l -22.221,38.4837 c -16.9536,-7.74281 -36.0371,-12.0604 -56.5599,-12.0604 -20.5227,0 -39.6063,4.31754 -56.5599,12.0604 l -22.221,-38.4837 c -1.2377,-2.12999 -3.94336,-2.84957 -6.07335,-1.61189 -2.13,1.2377 -2.84959,3.94337 -1.61189,6.07335 l 21.9331,37.9944 c -37.8217,20.494 -63.4392,58.7762 -67.6703,103.592 h 264.407 c -4.2312,-44.8161 -29.8487,-83.0984 -67.6991,-103.592 z m -125.209,66.4614 c -6.13092,0 -11.0817,-4.97957 -11.0817,-11.0817 0,-6.13093 4.97957,-11.0817 11.0817,-11.0817 6.13092,0 11.0817,4.97956 11.0817,11.0817 0.0289,6.10212 -4.95079,11.0817 -11.0817,11.0817 z m 121.381,0 c -6.13091,0 -11.0817,-4.97957 -11.0817,-11.0817 0,-6.13093 4.97958,-11.0817 11.0817,-11.0817 6.13093,0 11.0817,4.97956 11.0817,11.0817 0.0288,6.10212 -4.95077,11.0817 -11.0817,11.0817 z"
             fill="#32de84"
             stroke-width="0.288"
             id="path57725"
             style="fill:#ffffff" />
        </g>
      </g>
      <g
         id="g57913"
         transform="translate(-121.00237,-23.817737)">
        <use
           x="0"
           y="0"
           xlink:href="#g56980"
           id="use57773"
           transform="translate(427.99757,-3.6087485)"
           width="100%"
           height="100%" />
        <path
           fill="currentColor"
           d="m 287.85829,283.66685 c 0.10515,0.0526 0.18917,0.17867 0.31529,0.17867 0.11561,0 0.29427,-0.0421 0.30477,-0.15764 0.0211,-0.14714 -0.19967,-0.24171 -0.3363,-0.30478 -0.17866,-0.0736 -0.40987,-0.10514 -0.57802,-0.0111 -0.0421,0.0211 -0.0841,0.0736 -0.063,0.11561 0.0315,0.13663 0.24172,0.11561 0.35733,0.17866 z m -2.30158,0.17867 c 0.12611,0 0.21019,-0.12612 0.31528,-0.17867 0.11561,-0.063 0.3258,-0.042 0.36784,-0.16814 0.0211,-0.042 -0.0211,-0.0946 -0.063,-0.11561 -0.16817,-0.0946 -0.39937,-0.063 -0.57802,0.0111 -0.13664,0.063 -0.35734,0.15764 -0.33631,0.30477 0.0111,0.10515 0.18917,0.15764 0.29426,0.14713 z m 23.23654,29.30054 c -0.37834,-0.42037 -0.557,-1.21911 -0.75668,-2.07037 -0.18917,-0.85127 -0.40987,-1.7656 -1.1035,-2.35414 -0.13662,-0.11561 -0.27324,-0.22069 -0.42038,-0.30478 -0.13663,-0.0841 -0.28375,-0.15764 -0.43089,-0.21018 0.96688,-2.8691 0.58854,-5.72769 -0.38885,-8.31303 -1.19808,-3.16337 -3.28948,-5.92737 -4.88693,-7.81909 -1.79712,-2.25955 -3.54171,-4.40348 -3.51018,-7.56685 0.0526,-4.82388 0.53599,-13.78849 -7.96621,-13.79899 -10.76175,-0.0211 -8.07131,10.86684 -8.18692,14.20886 -0.17866,2.45923 -0.67261,4.39298 -2.36464,6.79966 -1.9863,2.36464 -4.78184,6.1796 -6.10603,10.16271 -0.63057,1.8812 -0.92484,3.79394 -0.6516,5.60158 -0.68311,0.60954 -1.19808,1.54489 -1.74457,2.12291 -0.4414,0.45192 -1.08249,0.62007 -1.78662,0.87229 -0.70413,0.25223 -1.47133,0.63057 -1.94426,1.52389 -0.2207,0.40987 -0.29426,0.85127 -0.29426,1.30318 0,0.40986 0.063,0.83024 0.12611,1.24012 0.12612,0.85127 0.26273,1.64999 0.0841,2.18597 -0.5465,1.51337 -0.62006,2.56433 -0.23122,3.33152 0.39937,0.7672 1.1981,1.10351 2.11241,1.29268 1.81815,0.37834 4.28789,0.28376 6.23215,1.31368 2.0809,1.09299 4.1933,1.48185 5.87482,1.09299 1.21911,-0.27324 2.21751,-1.00891 2.72197,-2.12291 1.31369,-0.0111 2.764,-0.56753 5.0761,-0.69363 1.56592,-0.12613 3.53119,0.557 5.79075,0.43088 0.063,0.24173 0.14713,0.48345 0.26273,0.70414 v 0.0111 c 0.8723,1.75509 2.50127,2.55381 4.23534,2.41719 1.74457,-0.13663 3.58374,-1.15605 5.0761,-2.93216 1.42929,-1.72356 3.78342,-2.4382 5.34934,-3.38405 0.77771,-0.47294 1.40828,-1.06147 1.46083,-1.92325 0.042,-0.86178 -0.46242,-1.81815 -1.62898,-3.12133 z m -20.63018,-33.26263 c 1.02994,-2.33312 3.59426,-2.29107 4.6242,-0.042 0.68311,1.49234 0.37834,3.24743 -0.45192,4.24584 -0.16815,-0.0841 -0.62006,-0.27325 -1.3242,-0.51497 0.1156,-0.12611 0.32579,-0.28376 0.40987,-0.48344 0.50446,-1.24011 -0.0211,-2.83756 -0.95637,-2.86909 -0.76719,-0.0526 -1.46082,1.13503 -1.24012,2.41719 -0.43089,-0.21019 -0.9879,-0.36784 -1.36624,-0.46242 -0.10514,-0.72516 -0.0315,-1.53439 0.30478,-2.29108 z m -4.27737,-1.2086 c 1.06146,0 2.18597,1.49236 2.00732,3.5207 -0.36784,0.10514 -0.74618,0.26273 -1.07197,0.48343 0.12611,-0.93534 -0.34681,-2.11241 -1.00892,-2.05986 -0.8828,0.0736 -1.02993,2.22801 -0.18918,2.95317 0.10514,0.0841 0.19969,-0.0211 -0.62005,0.57803 -1.63949,-1.53439 -1.10351,-5.47547 0.8828,-5.47547 z m -1.4293,6.37929 c 0.65159,-0.48344 1.4293,-1.05096 1.48184,-1.1035 0.49395,-0.46242 1.41879,-1.49236 2.93216,-1.49236 0.74618,0 1.63949,0.24173 2.72197,0.93536 0.6621,0.43089 1.18758,0.4624 2.37514,0.97738 0.8828,0.36783 1.43981,1.01943 1.1035,1.91273 -0.27324,0.74618 -1.15604,1.51337 -2.38566,1.90223 -1.16655,0.37834 -2.08088,1.68151 -4.01464,1.56591 -0.40987,-0.0211 -0.73566,-0.10514 -1.00891,-0.2207 -0.84075,-0.36783 -1.28216,-1.09298 -2.1019,-1.57643 -0.90381,-0.50446 -1.38726,-1.09299 -1.5449,-1.60795 -0.14714,-0.51496 0,-0.94586 0.4414,-1.29267 z m 0.34681,35.10179 c -0.28375,3.68884 -4.61368,3.61528 -7.91366,1.89172 -3.14235,-1.66051 -7.20953,-0.68312 -8.03978,-2.3016 -0.25223,-0.49393 -0.25223,-1.3347 0.27325,-2.7745 v -0.0211 c 0.25223,-0.79873 0.063,-1.68153 -0.063,-2.51177 -0.12611,-0.81976 -0.18917,-1.57644 0.0945,-2.10191 0.36783,-0.70414 0.89331,-0.95637 1.55541,-1.18758 1.08247,-0.38886 1.24012,-0.35733 2.05987,-1.04044 0.57802,-0.59904 0.9984,-1.35573 1.50285,-1.89172 0.536,-0.57802 1.05096,-0.85127 1.86019,-0.72515 0.85127,0.12611 1.58693,0.71464 2.30158,1.68152 l 2.05987,3.74139 c 0.9984,2.0914 4.5296,5.0866 4.3089,7.24106 z m -0.14712,-2.72196 c -0.4309,-0.69363 -1.00893,-1.4293 -1.51338,-2.05987 0.74618,0 1.49236,-0.23121 1.75509,-0.93535 0.24172,-0.65159 0,-1.56592 -0.77771,-2.61687 -1.41878,-1.91273 -4.02514,-3.41559 -4.02514,-3.41559 -1.41878,-0.8828 -2.2175,-1.96529 -2.58534,-3.14235 -0.36783,-1.17707 -0.31528,-2.44871 -0.0315,-3.69935 0.54649,-2.40668 1.95476,-4.75031 2.85858,-6.22163 0.24173,-0.17867 0.0841,0.3363 -0.91432,2.18597 -0.89332,1.69204 -2.56433,5.60158 -0.27325,8.65985 0.063,-2.17547 0.57803,-4.39298 1.45031,-6.46336 1.26115,-2.87961 3.92005,-7.87163 4.13024,-11.84422 0.11561,0.0841 0.48344,0.33631 0.65159,0.43088 0.48344,0.28377 0.85127,0.70414 1.3242,1.08249 1.30318,1.05094 2.99521,0.96687 4.45604,0.12611 0.65159,-0.36784 1.17706,-0.78821 1.67101,-0.94586 1.04044,-0.32578 1.8707,-0.90381 2.34362,-1.57642 0.80924,3.1949 2.70095,7.80858 3.90954,10.05761 0.64109,1.19808 1.92325,3.73088 2.48026,6.78915 0.34681,-0.0111 0.73566,0.0421 1.14553,0.14713 1.45031,-3.75189 -1.22961,-7.79806 -2.44872,-8.92258 -0.49395,-0.48345 -0.51496,-0.69363 -0.27325,-0.68312 1.32421,1.17707 3.06879,3.54171 3.69936,6.20062 0.29427,1.2191 0.34681,2.49075 0.042,3.75189 1.72356,0.71465 3.77291,1.88121 3.22641,3.65732 -0.2312,-0.0111 -0.33629,0 -0.4414,0 0.33631,-1.06146 -0.40987,-1.84968 -2.39616,-2.74298 -2.05987,-0.90382 -3.78342,-0.90382 -4.02514,1.31368 -1.27166,0.4414 -1.92326,1.54491 -2.24905,2.8691 -0.29426,1.17706 -0.37834,2.59586 -0.46242,4.19329 -0.0526,0.80924 -0.37834,1.89172 -0.71465,3.04776 -3.37355,2.40669 -8.06079,3.45764 -12.01237,0.7567 z m 27.0515,-1.2086 c -0.0946,1.76559 -4.32992,2.0914 -6.64202,4.88693 -1.38725,1.65 -3.08979,2.56432 -4.58215,2.67992 -1.49236,0.11561 -2.78502,-0.50446 -3.54171,-2.02833 -0.49395,-1.16655 -0.25223,-2.4277 0.11561,-3.81496 0.38885,-1.49234 0.96686,-3.02674 1.04044,-4.26686 0.0841,-1.59745 0.17866,-2.99521 0.4414,-4.06718 0.27325,-1.08249 0.69362,-1.80764 1.4398,-2.21751 0.0315,-0.0211 0.0736,-0.0315 0.10514,-0.0526 0.0841,1.38725 0.76719,2.79553 1.97579,3.10031 1.32419,0.34681 3.22642,-0.78823 4.03566,-1.71306 0.94585,-0.0315 1.64998,-0.0946 2.37514,0.53599 1.04044,0.8933 0.74618,3.18437 1.79712,4.37195 1.11402,1.21911 1.47134,2.04937 1.43981,2.58535 z m -26.84132,-29.88907 c 0.21019,0.19968 0.49395,0.47293 0.84076,0.74617 0.69363,0.5465 1.66051,1.11401 2.86911,1.11401 1.21909,0 2.36464,-0.62006 3.34202,-1.13502 0.51496,-0.27325 1.14553,-0.73567 1.5554,-1.09299 0.40988,-0.35734 0.62007,-0.6621 0.3258,-0.69363 -0.29426,-0.0315 -0.27324,0.27324 -0.63057,0.53598 -0.46242,0.33631 -1.01942,0.77771 -1.46082,1.02994 -0.77771,0.4414 -2.04936,1.07197 -3.14235,1.07197 -1.09299,0 -1.96527,-0.50446 -2.61686,-1.01943 -0.32581,-0.26274 -0.59905,-0.52547 -0.80924,-0.72516 -0.15764,-0.14712 -0.19969,-0.48343 -0.4519,-0.51496 -0.14714,-0.0111 -0.18919,0.38885 0.17865,0.68312 z"
           id="path57764"
           style="fill:#ffffff;stroke-width:0.105095" />
      </g>
    </g>
    <text
       xml:space="preserve"
       style="font-style:normal;font-variant:normal;font-weight:normal;font-stretch:normal;font-size:17.3608px;line-height:1.25;font-family:sans-serif;-inkscape-font-specification:sans-serif;fill:#4d4d4d;stroke-width:0.434022"
       x="-37.620308"
       y="187.7912"
       id="text60297"><tspan
         sodipodi:role="line"
         id="tspan60295"
         style="font-style:normal;font-variant:normal;font-weight:normal;font-stretch:normal;font-family:'Roboto Condensed';-inkscape-font-specification:'Roboto Condensed, ';fill:#4d4d4d;stroke-width:0.434022"
         x="-37.620308"
         y="187.7912">weekly builds since 2017</tspan></text>
  </g>
  <style
     type="text/css"
     id="style57009">
	.st0{fill:url(#SVGID_1_);}
	.st1{fill:#515151;}
</style>
</svg>
